<svg width="41" height="40" viewBox="0 0 41 40" fill="none" xmlns="http://www.w3.org/2000/svg">
<path d="M25.3442 16.55C24.0306 16.55 22.7548 16.8048 21.5523 17.3071C21.1542 17.4734 20.9663 17.931 21.1325 18.3291C21.2988 18.7273 21.7564 18.915 22.1546 18.7489C23.1653 18.3266 24.2385 18.1125 25.3442 18.1125C29.9106 18.1125 33.6255 21.8275 33.6255 26.3938C33.6255 30.96 29.9106 34.675 25.3442 34.675C20.7779 34.675 17.063 30.96 17.063 26.3938C17.063 25.2897 17.2764 24.218 17.6974 23.2086C17.8635 22.8104 17.6753 22.3529 17.2771 22.1868C16.8792 22.021 16.4214 22.209 16.2553 22.6072C15.7545 23.8082 15.5005 25.0822 15.5005 26.3938C15.5005 31.8217 19.9163 36.2375 25.3442 36.2375C30.7721 36.2375 35.188 31.8217 35.188 26.3938C35.188 20.9659 30.7721 16.55 25.3442 16.55Z" fill="#EC6708"/>
<path d="M25.3442 32.8C28.8767 32.8 31.7505 29.9262 31.7505 26.3938C31.7505 22.8614 28.8767 19.9875 25.3442 19.9875C21.8118 19.9875 18.938 22.8614 18.938 26.3938C18.938 29.9262 21.8119 32.8 25.3442 32.8ZM25.3442 21.55C28.0151 21.55 30.188 23.723 30.188 26.3938C30.188 29.0646 28.0151 31.2375 25.3442 31.2375C22.6734 31.2375 20.5005 29.0647 20.5005 26.3938C20.5005 23.7229 22.6734 21.55 25.3442 21.55Z" fill="#EC6708"/>
<path d="M36.5378 12.8H34.1613L31.4335 8.18388C31.293 7.94599 31.0372 7.80005 30.7609 7.80005H19.9276C19.6513 7.80005 19.3955 7.94599 19.255 8.18388L16.5273 12.8H12.0625V11.8625C12.0625 10.3117 10.8009 9.05005 9.25 9.05005C7.69914 9.05005 6.4375 10.3117 6.4375 11.8625V12.8H4.46219C2.27742 12.8 0.5 14.5775 0.5 16.7623V36.0253C0.5 38.2101 2.27742 39.9875 4.46219 39.9875H36.5377C38.7225 39.9875 40.4999 38.2101 40.4999 36.0253V16.7623C40.5 14.5775 38.7225 12.8 36.5378 12.8ZM20.3734 9.36255H30.3151L32.3463 12.8H18.3421L20.3734 9.36255ZM8 11.8625C8 11.1733 8.56078 10.6125 9.25 10.6125C9.93922 10.6125 10.5 11.1733 10.5 11.8625V12.8H8V11.8625ZM38.9375 36.0253C38.9375 37.3486 37.861 38.425 36.5378 38.425H4.46219C3.13898 38.425 2.0625 37.3485 2.0625 36.0253V16.7623C2.0625 15.439 3.13898 14.3625 4.46219 14.3625H36.5377C37.8609 14.3625 38.9374 15.439 38.9374 16.7623V36.0253H38.9375Z" fill="#EC6708"/>
<path d="M25.3442 24.8704C26.1843 24.8704 26.8677 25.5538 26.8677 26.3938C26.8677 26.8253 27.2174 27.175 27.6489 27.175C28.0804 27.175 28.4302 26.8253 28.4302 26.3938C28.4302 24.6922 27.0458 23.3079 25.3442 23.3079C24.9128 23.3079 24.563 23.6577 24.563 24.0891C24.563 24.5205 24.9128 24.8704 25.3442 24.8704Z" fill="#EC6708"/>
<path d="M25.3442 5.74472C25.7757 5.74472 26.1255 5.39487 26.1255 4.96347V0.793701C26.1255 0.362295 25.7757 0.0124512 25.3442 0.0124512C24.9128 0.0124512 24.563 0.362217 24.563 0.793701V4.96347C24.563 5.39495 24.9128 5.74472 25.3442 5.74472Z" fill="#EC6708"/>
<path d="M29.0617 5.74466C29.2617 5.74466 29.4617 5.66833 29.6142 5.51583L32.4807 2.64935C32.7857 2.34427 32.7857 1.84958 32.4806 1.54442C32.1755 1.23942 31.6808 1.23942 31.3757 1.54442L28.5093 4.41099C28.2042 4.71606 28.2042 5.21075 28.5093 5.51591C28.6619 5.66841 28.8618 5.74466 29.0617 5.74466Z" fill="#EC6708"/>
<path d="M21.0743 5.51592C21.2268 5.66842 21.4268 5.74475 21.6267 5.74475C21.8266 5.74475 22.0266 5.66842 22.1791 5.51592C22.4842 5.21084 22.4843 4.71616 22.1792 4.411L19.3127 1.54452C19.0076 1.23959 18.5129 1.23952 18.2079 1.54452C17.9028 1.84959 17.9027 2.34428 18.2078 2.64944L21.0743 5.51592Z" fill="#EC6708"/>
<path d="M11.2812 19.2063H7.21875C6.78727 19.2063 6.4375 19.5561 6.4375 19.9875C6.4375 20.419 6.78727 20.7688 7.21875 20.7688H11.2812C11.7127 20.7688 12.0625 20.419 12.0625 19.9875C12.0625 19.5561 11.7127 19.2063 11.2812 19.2063Z" fill="#EC6708"/>
<path d="M18.9343 20.7688C19.1398 20.7688 19.3414 20.6852 19.4867 20.5399C19.632 20.3946 19.7156 20.1937 19.7156 19.9875C19.7156 19.7821 19.632 19.5805 19.4867 19.4352C19.3414 19.29 19.1398 19.2063 18.9343 19.2063C18.7289 19.2063 18.5273 19.2899 18.382 19.4352C18.2359 19.5805 18.1531 19.7822 18.1531 19.9875C18.1531 20.193 18.2359 20.3946 18.382 20.5399C18.5273 20.6852 18.7281 20.7688 18.9343 20.7688Z" fill="#EC6708"/>
</svg>
