<svg width="32" height="31" viewBox="0 0 32 31" fill="none" xmlns="http://www.w3.org/2000/svg">
<path d="M16.5892 14.7549C17.5882 11.4436 14.8429 9.64775 13.0891 5.73783C10.5213 0.00934244 6.7769 -0.36195 5.17851 2.05523C3.58012 4.47241 5.76308 7.7534 4.74929 10.6252L4.74929 10.6783C3.84649 13.588 0.168736 14.8382 0.005938 17.7555C-0.156861 20.6728 3.03991 22.7035 8.47888 19.7408C12.1715 17.7252 15.4201 18.0056 16.5892 14.7549Z" fill="#EC6708"/>
<path d="M14.9823 5.7929C15.5941 7.79812 18.5504 8.63658 21.5853 7.66567C24.6202 6.69475 26.5846 4.28213 25.9728 2.27691C25.361 0.271694 22.4047 -0.566774 19.3697 0.404138C16.3348 1.37505 14.3705 3.78768 14.9823 5.7929Z" fill="#EC6708"/>
<path d="M16.3525 23.5143C14.5173 20.8547 11.6683 19.7256 9.99589 20.9001C8.3235 22.0746 8.4567 25.2495 10.2919 27.9016C12.1271 30.5537 14.9761 31.7358 16.6485 30.5234C18.3209 29.311 18.1877 26.1512 16.3525 23.5143Z" fill="#EC6708"/>
<path d="M25.3871 16.8433C28.7009 17.3552 31.6487 15.9957 31.9712 13.8067C32.2938 11.6177 29.8689 9.42808 26.5552 8.91612C23.2414 8.40416 20.2936 9.76369 19.9711 11.9527C19.6485 14.1417 22.0734 16.3313 25.3871 16.8433Z" fill="#EC6708"/>
<path d="M24.8106 18.5436C21.8506 16.8917 18.6464 17.1266 17.603 19.0664C16.5597 21.0062 18.1062 23.9159 21.044 25.5754C23.9818 27.2348 27.2082 26.9923 28.2516 25.0525C29.295 23.1127 27.7484 20.1954 24.8106 18.5436Z" fill="#EC6708"/>
</svg>
