<svg width="20" height="20" viewBox="0 0 20 20" fill="none" xmlns="http://www.w3.org/2000/svg">
<path d="M9.99998 9.00003C10.3296 9.00003 10.6518 8.90228 10.9259 8.71915C11.2 8.53601 11.4136 8.27572 11.5398 7.97117C11.6659 7.66663 11.6989 7.33152 11.6346 7.00822C11.5703 6.68491 11.4116 6.38794 11.1785 6.15486C10.9454 5.92177 10.6484 5.76303 10.3251 5.69872C10.0018 5.63442 9.66672 5.66742 9.36217 5.79357C9.05763 5.91971 8.79733 6.13333 8.6142 6.40742C8.43106 6.6815 8.33331 7.00373 8.33331 7.33337C8.33331 7.77539 8.50891 8.19932 8.82147 8.51188C9.13403 8.82444 9.55795 9.00003 9.99998 9.00003ZM9.40831 14.7584C9.48578 14.8365 9.57795 14.8985 9.6795 14.9408C9.78105 14.9831 9.88997 15.0049 9.99998 15.0049C10.11 15.0049 10.2189 14.9831 10.3205 14.9408C10.422 14.8985 10.5142 14.8365 10.5916 14.7584L14 11.3417C14.7916 10.5505 15.3308 9.54227 15.5494 8.44458C15.7679 7.34689 15.6561 6.20904 15.2279 5.17494C14.7997 4.14084 14.0745 3.25696 13.1439 2.63508C12.2133 2.0132 11.1192 1.68127 9.99998 1.68127C8.88074 1.68127 7.78664 2.0132 6.85607 2.63508C5.9255 3.25696 5.20026 4.14084 4.77208 5.17494C4.3439 6.20904 4.23202 7.34689 4.45059 8.44458C4.66915 9.54227 5.20835 10.5505 5.99998 11.3417L9.40831 14.7584ZM6.02498 6.95003C6.08192 6.35588 6.27083 5.78194 6.57792 5.27013C6.88501 4.75831 7.30252 4.32154 7.79998 3.9917C8.45348 3.56261 9.2182 3.334 9.99998 3.334C10.7818 3.334 11.5465 3.56261 12.2 3.9917C12.6941 4.32041 13.1093 4.75453 13.4156 5.26285C13.7219 5.77117 13.9118 6.34106 13.9715 6.93152C14.0313 7.52199 13.9595 8.11836 13.7612 8.67775C13.563 9.23714 13.2432 9.74564 12.825 10.1667L9.99998 12.9917L7.17498 10.1667C6.75625 9.74973 6.43575 9.24464 6.23682 8.6882C6.03788 8.13176 5.96551 7.53797 6.02498 6.95003ZM15.8333 16.6667H4.16665C3.94563 16.6667 3.73367 16.7545 3.57739 16.9108C3.42111 17.0671 3.33331 17.279 3.33331 17.5C3.33331 17.721 3.42111 17.933 3.57739 18.0893C3.73367 18.2456 3.94563 18.3334 4.16665 18.3334H15.8333C16.0543 18.3334 16.2663 18.2456 16.4226 18.0893C16.5788 17.933 16.6666 17.721 16.6666 17.5C16.6666 17.279 16.5788 17.0671 16.4226 16.9108C16.2663 16.7545 16.0543 16.6667 15.8333 16.6667Z" fill="#C48321"/>
</svg>
