<svg xmlns="http://www.w3.org/2000/svg" width="1440" height="162" viewBox="0 0 1440 162" fill="none">
<g clip-path="url(#clip0_6_204)">
<path d="M1440 120.447C1440 52.4616 1383.58 -1.94632 1315.64 0.526532L115.635 44.2032C51.1024 46.552 0 99.5482 0 164.124V675.553C0 743.538 56.4242 797.946 124.365 795.474L1324.36 751.797C1388.9 749.448 1440 696.452 1440 631.876V120.447Z" fill="#FCDFB3"/>
<mask id="mask0_6_204" style="mask-type:alpha" maskUnits="userSpaceOnUse" x="0" y="0" width="1440" height="796">
<path d="M1440 120.447C1440 52.4616 1383.58 -1.94632 1315.64 0.526532L115.635 44.2032C51.1024 46.552 0 99.5482 0 164.124V675.553C0 743.538 56.4242 797.946 124.365 795.474L1324.36 751.797C1388.9 749.448 1440 696.452 1440 631.876V120.447Z" fill="#FCDFB3"/>
</mask>
<g mask="url(#mask0_6_204)">
<g opacity="0.1">
<path d="M2375.27 -7.82378H2343.08C2338.32 -7.82378 2333.25 -8.22028 2328.41 -7.82378C2320.48 -7.34797 2318.9 -1.87631 2317.23 6.21237C2315.57 14.301 2317.23 19.5349 2308.27 20.3279C2303.2 20.7244 2297.89 19.8521 2292.81 20.3279C2276.16 21.3588 2269.98 45.0698 2255.15 52.762C2249.06 56.0586 2242.47 58.3356 2235.65 59.5025C2229.38 60.3748 2225.97 59.5025 2220.26 63.7054C2213.34 69.6089 2207.23 76.4094 2202.11 83.9271C2199.67 86.9197 2197.02 89.7292 2194.18 92.333C2192.43 94.0776 2187.6 102.484 2185.22 103.277C2181.02 104.545 2173.72 100.58 2168.25 101.294C2162.92 101.809 2157.97 104.297 2154.37 108.272C2148.82 113.665 2148.27 116.203 2141.21 118.185C2138.92 119.261 2136.41 119.818 2133.88 119.818C2131.34 119.818 2128.84 119.261 2126.54 118.185C2112.74 111.132 2101.61 99.7744 2094.83 85.8304C2092.85 81.7067 2091.66 71.9527 2084.92 73.618C2080.4 74.8075 2074.06 84.0858 2070.96 87.3371C2066.44 93.2548 2061.57 98.8952 2056.37 104.228C2049.5 109.078 2042.17 113.248 2034.49 116.678C2028.23 120.088 2024.66 126.432 2017.36 126.115C2010.63 124.986 2004.19 122.534 1998.41 118.899C1991.6 115.172 1988.5 110.969 1981.6 115.172C1976.49 118.789 1970.77 121.474 1964.72 123.102C1959.28 124.903 1953.63 125.97 1947.91 126.274C1943.21 125.627 1938.61 124.43 1934.19 122.705C1924.2 119.771 1914.61 114.775 1904.54 112.555C1899.14 111.286 1894.15 108.114 1888.68 107.083C1881.7 105.576 1872.82 110.652 1866.16 112.238C1859.38 113.601 1852.94 116.296 1847.21 120.168C1842.83 123.887 1838.22 127.33 1833.41 130.477C1827.1 132.375 1820.44 132.889 1813.91 131.983H1785.6C1779.06 132.421 1772.56 133.402 1766.18 134.917C1760.32 134.792 1754.53 136.185 1749.37 138.962C1737.25 145.541 1725.8 153.297 1715.19 162.118C1705.12 171.396 1694.98 180.119 1690.77 193.838C1687.61 207.136 1679.65 218.798 1668.41 226.589C1658.74 232.933 1645.58 231.427 1634.95 235.471C1628.79 237.155 1623.07 240.189 1618.22 244.353C1611.7 251.137 1604.15 256.863 1595.87 261.323C1587.94 265.367 1581.04 270.522 1573.43 274.566C1563.83 279.562 1565.5 283.765 1563.67 293.916C1562.96 301.554 1561.85 309.151 1560.34 316.675C1557.52 325.574 1553.32 333.976 1547.9 341.575C1539.41 353.708 1528.63 365.365 1528.79 380.75C1529.44 393.823 1528.48 406.926 1525.93 419.766C1524.66 425.396 1524.19 431.423 1522.6 437.212C1521.02 443.001 1516.58 449.186 1515.07 455.847C1512.74 470.055 1505.83 483.113 1495.41 493.04C1487.93 501.955 1479.41 509.942 1470.03 516.83C1464.48 520.002 1457.74 522.222 1451.96 524.76C1446.17 527.297 1441.33 528.566 1436.1 531.025C1429.6 534.355 1428.57 541.334 1425.87 547.916C1417.69 567.006 1407.31 585.076 1394.95 601.761C1384.64 616.114 1384.24 632.054 1377.74 648.311C1367.34 675.662 1360.05 704.099 1356.02 733.083C1353.19 744.894 1351.91 757.023 1352.21 769.165C1353 777.729 1355.07 785.897 1355.38 794.382C1354.81 808.791 1352 823.023 1347.06 836.57C1342.78 851.241 1341.19 865.832 1337.86 880.662C1335.77 887.145 1334.16 893.771 1333.02 900.487C1332.43 906.58 1331.4 912.623 1329.93 918.567C1329.3 921.422 1327.79 923.167 1327.23 926.497C1327.27 930.046 1327.12 933.593 1326.76 937.124C1324.9 943.589 1322.54 949.899 1319.7 955.997C1317.01 962.421 1308.13 972.412 1307.89 978.994H2375.27V-7.82378Z" fill="#432F0F"/>
</g>
</g>
</g>
<defs>
<clipPath id="clip0_6_204">
<rect width="1440" height="162" fill="white"/>
</clipPath>
</defs>
</svg>