<svg width="39" height="28" viewBox="0 0 39 28" fill="none" xmlns="http://www.w3.org/2000/svg">
<circle cx="25" cy="14" r="14" fill="#009846"/>
<path d="M1 13.5C0.723858 13.5 0.5 13.7239 0.5 14C0.5 14.2761 0.723858 14.5 1 14.5V13.5ZM29.3536 14.3536C29.5488 14.1583 29.5488 13.8417 29.3536 13.6464L26.1716 10.4645C25.9763 10.2692 25.6597 10.2692 25.4645 10.4645C25.2692 10.6597 25.2692 10.9763 25.4645 11.1716L28.2929 14L25.4645 16.8284C25.2692 17.0237 25.2692 17.3403 25.4645 17.5355C25.6597 17.7308 25.9763 17.7308 26.1716 17.5355L29.3536 14.3536ZM1 14.5H29V13.5H1V14.5Z" fill="#2B2A29"/>
</svg>
