<svg width="139" height="187" viewBox="0 0 150 230" fill="none" xmlns="http://www.w3.org/2000/svg">
    <g>
        <g class="leaf1" style="transform-origin: 100% 50%; transform-box: fill-box;">
            <path d="M130.415 77.6217C130.415 77.6217 121.997 19.5363 108.179 22.6152C108.179 22.6152 99.6653 20.3774 99.6494 38.4855C99.6494 38.4855 93.4709 3.31685 81.3523 4.22146C69.2336 5.12607 73.7444 32.2326 73.7444 32.2326C73.7444 32.2326 61.038 -1.46011 50.9524 0.0316925C40.8668 1.52351 44.7422 33.7879 44.7422 33.7879C44.7422 33.7879 15.3429 24.3609 2.68427 31.2486C-9.97441 38.1363 26.5086 53.8797 30.9717 55.7524C30.9717 55.7524 9.41862 67.9249 19.1866 74.3524C28.9546 80.7799 55.082 67.3218 55.082 67.3218C55.082 67.3218 37.1978 88.1755 45.1869 92.8255C53.176 97.4755 85.4818 75.4792 85.4818 75.4792C85.4818 75.4792 66.9783 101.11 84.0206 105.633C101.063 110.156 130.415 77.6217 130.415 77.6217Z" fill="#EC6708"/>
            <path d="M43.5192 44.5639C43.5192 44.5639 95.6468 49.1663 149.442 91.0164" stroke="#F7E3C1" stroke-width="3" stroke-miterlimit="10" stroke-linecap="round"/>
        </g>
        <g class="leaf2" style="transform-origin: 100% 50%; transform-box: fill-box;">
            <path d="M142.406 106.522C142.406 106.522 159.877 146.531 149.919 150.022C149.919 150.022 145.408 154.783 138.292 143.325C138.292 143.325 148.203 167.971 140.183 172.145C132.162 176.319 124.3 157.434 124.3 157.434C124.3 157.434 129.557 183.699 122.6 186.714C115.643 189.73 105.431 167.813 105.431 167.813C105.431 167.813 90.5326 185.286 79.8434 185.905C69.1542 186.524 85.9583 162.29 88.1025 159.322C88.1025 159.322 69.6942 160.068 73.3473 152.18C77.0004 144.293 98.7917 142.563 98.7917 142.563C98.7917 142.563 79.4146 136.374 82.5911 130.311C85.7677 124.249 114.881 125.55 114.881 125.55C114.881 125.55 93.1215 116.599 102.175 107.109C111.228 97.6183 142.406 106.522 142.406 106.522Z" fill="#EC6708"/>
            <path d="M100.443 161.48C100.443 161.48 131.606 138.135 149.188 90.5877" stroke="#F7E3C1" stroke-width="3" stroke-miterlimit="10" stroke-linecap="round"/>
        </g>
    </g>

    <defs>
        <style>
            .leaf1 {
                animation: skew 5s ease infinite;
            }
            @keyframes skew {
                0% {
                    transform: skew(0);
                }
                30% {
                    transform: skew(10deg);
                }
                48% {
                    transform: skew(-10deg);
                }
                64% {
                    transform: skew(6deg);
                }
                85% {
                    transform: skew(-3deg);
                }
                100% {
                    transform: skew(0);
                }
            }


            .leaf2 {
                animation: skew2 8s ease infinite;
            }
            @keyframes skew2 {
                0% {
                    transform: skew(0);
                }
                30% {
                    transform: skew(8deg);
                }
                48% {
                    transform: skew(-16deg);
                }
                64% {
                    transform: skew(14deg);
                }
                85% {
                    transform: skew(-6deg);
                }
                100% {
                    transform: skew(0);
                }
            }
        </style>
    </defs>
</svg>
