<svg width="20" height="20" viewBox="0 0 20 20" fill="none" xmlns="http://www.w3.org/2000/svg">
<path d="M10.0007 8.99991C10.3303 8.99991 10.6525 8.90216 10.9266 8.71903C11.2007 8.53589 11.4143 8.27559 11.5405 7.97105C11.6666 7.66651 11.6996 7.3314 11.6353 7.00809C11.571 6.68479 11.4122 6.38782 11.1792 6.15473C10.9461 5.92165 10.6491 5.76291 10.3258 5.6986C10.0025 5.63429 9.66739 5.6673 9.36285 5.79344C9.0583 5.91959 8.798 6.13321 8.61487 6.40729C8.43173 6.68138 8.33398 7.00361 8.33398 7.33324C8.33398 7.77527 8.50958 8.19919 8.82214 8.51175C9.1347 8.82432 9.55862 8.99991 10.0007 8.99991ZM9.40898 14.7582C9.48645 14.8364 9.57862 14.8983 9.68017 14.9407C9.78172 14.983 9.89064 15.0047 10.0007 15.0047C10.1107 15.0047 10.2196 14.983 10.3211 14.9407C10.4227 14.8983 10.5148 14.8364 10.5923 14.7582L14.0007 11.3416C14.7923 10.5504 15.3315 9.54215 15.55 8.44446C15.7686 7.34677 15.6567 6.20892 15.2286 5.17482C14.8004 4.14072 14.0751 3.25684 13.1446 2.63496C12.214 2.01308 11.1199 1.68115 10.0007 1.68115C8.88141 1.68115 7.78731 2.01308 6.85674 2.63496C5.92617 3.25684 5.20093 4.14072 4.77275 5.17482C4.34457 6.20892 4.23269 7.34677 4.45126 8.44446C4.66983 9.54215 5.20902 10.5504 6.00065 11.3416L9.40898 14.7582ZM6.02565 6.94991C6.08259 6.35576 6.2715 5.78182 6.57859 5.27001C6.88568 4.75819 7.30319 4.32142 7.80065 3.99158C8.45415 3.56249 9.21887 3.33388 10.0007 3.33388C10.7824 3.33388 11.5471 3.56249 12.2007 3.99158C12.6948 4.32029 13.1099 4.75441 13.4163 5.26273C13.7226 5.77105 13.9124 6.34094 13.9722 6.9314C14.032 7.52186 13.9601 8.11823 13.7619 8.67762C13.5636 9.23701 13.2439 9.74552 12.8257 10.1666L10.0007 12.9916L7.17565 10.1666C6.75692 9.74961 6.43642 9.24452 6.23749 8.68808C6.03855 8.13164 5.96619 7.53784 6.02565 6.94991ZM15.834 16.6666H4.16732C3.9463 16.6666 3.73434 16.7544 3.57806 16.9107C3.42178 17.0669 3.33398 17.2789 3.33398 17.4999C3.33398 17.7209 3.42178 17.9329 3.57806 18.0892C3.73434 18.2454 3.9463 18.3332 4.16732 18.3332H15.834C16.055 18.3332 16.267 18.2454 16.4232 18.0892C16.5795 17.9329 16.6673 17.7209 16.6673 17.4999C16.6673 17.2789 16.5795 17.0669 16.4232 16.9107C16.267 16.7544 16.055 16.6666 15.834 16.6666Z" fill="white"/>
</svg>
