<svg width="38" height="28" viewBox="0 0 38 28" fill="none" xmlns="http://www.w3.org/2000/svg">
<g clip-path="url(#clip0_505_13153)">
<path d="M6.88768 27.9385V26.0803C6.88768 25.3695 6.43132 24.904 5.64789 24.904C5.25618 24.904 4.83024 25.0267 4.5374 25.4308C4.30922 25.0916 3.98216 24.904 3.49156 24.904C3.1645 24.904 2.83744 24.9978 2.57883 25.337V24.9654H1.89429V27.9385H2.57883V26.2968C2.57883 25.77 2.87167 25.521 3.32803 25.521C3.7844 25.521 4.01258 25.7989 4.01258 26.2968V27.9385H4.69713V26.2968C4.69713 25.77 5.02419 25.521 5.44633 25.521C5.90269 25.521 6.13088 25.7989 6.13088 26.2968V27.9385H6.88768ZM17.0418 24.9654H15.9313V24.0669H15.2468V24.9654H14.6269V25.5535H15.2468V26.9174C15.2468 27.5994 15.5396 27.9999 16.323 27.9999C16.6159 27.9999 16.9429 27.9061 17.1711 27.7834L16.9733 27.2241C16.7756 27.3468 16.5474 27.3793 16.3839 27.3793C16.0568 27.3793 15.9275 27.1916 15.9275 26.8849V25.5535H17.038V24.9654H17.0418ZM22.8529 24.9004C22.4611 24.9004 22.1987 25.088 22.0352 25.3334V24.9617H21.3507V27.9349H22.0352V26.2607C22.0352 25.7664 22.2634 25.4849 22.6893 25.4849C22.8186 25.4849 22.9822 25.5174 23.1153 25.5463L23.313 24.9257C23.1761 24.9004 22.9822 24.9004 22.8529 24.9004ZM14.0716 25.2107C13.7446 24.9942 13.2882 24.9004 12.7976 24.9004C12.0142 24.9004 11.4932 25.2721 11.4932 25.8602C11.4932 26.3545 11.8849 26.636 12.5694 26.7262L12.8965 26.7586C13.254 26.82 13.4517 26.9138 13.4517 27.069C13.4517 27.2855 13.1893 27.4406 12.733 27.4406C12.2766 27.4406 11.9153 27.2855 11.6871 27.1303L11.3601 27.6246C11.7175 27.8736 12.2081 27.9963 12.6987 27.9963C13.6115 27.9963 14.1363 27.5922 14.1363 27.0365C14.1363 26.5097 13.7103 26.2318 13.06 26.138L12.733 26.1056C12.4401 26.0731 12.2119 26.0117 12.2119 25.8277C12.2119 25.6112 12.4401 25.4885 12.8014 25.4885C13.1931 25.4885 13.5848 25.6437 13.7826 25.7375L14.0716 25.2107ZM32.2844 24.9004C31.8927 24.9004 31.6303 25.088 31.4667 25.3334V24.9617H30.7822V27.9349H31.4667V26.2607C31.4667 25.7664 31.6949 25.4849 32.1209 25.4849C32.2502 25.4849 32.4137 25.5174 32.5468 25.5463L32.7446 24.9329C32.6115 24.9004 32.4175 24.9004 32.2844 24.9004ZM23.5374 26.4519C23.5374 27.3504 24.1915 27.9999 25.2031 27.9999C25.6595 27.9999 25.9866 27.9061 26.3136 27.6607L25.9866 27.1339C25.7241 27.3215 25.4655 27.4117 25.1689 27.4117C24.6137 27.4117 24.222 27.0401 24.222 26.4519C24.222 25.8927 24.6137 25.521 25.1689 25.4922C25.4617 25.4922 25.7241 25.586 25.9866 25.77L26.3136 25.2432C25.9866 24.9942 25.6595 24.904 25.2031 24.904C24.1915 24.9004 23.5374 25.5535 23.5374 26.4519ZM29.8695 26.4519V24.9654H29.1849V25.337C28.9567 25.0592 28.6297 24.904 28.2037 24.904C27.3214 24.904 26.6369 25.5535 26.6369 26.4519C26.6369 27.3504 27.3214 27.9999 28.2037 27.9999C28.6601 27.9999 28.9872 27.8447 29.1849 27.5669V27.9385H29.8695V26.4519ZM27.3557 26.4519C27.3557 25.9251 27.7131 25.4922 28.3026 25.4922C28.8579 25.4922 29.2496 25.8963 29.2496 26.4519C29.2496 26.9788 28.8579 27.4117 28.3026 27.4117C27.7169 27.3793 27.3557 26.9751 27.3557 26.4519ZM19.1639 24.9004C18.2512 24.9004 17.597 25.521 17.597 26.4483C17.597 27.3793 18.2512 27.9963 19.1981 27.9963C19.6545 27.9963 20.1109 27.8736 20.4721 27.5922L20.1451 27.1267C19.8827 27.3143 19.5556 27.437 19.2324 27.437C18.8064 27.437 18.3843 27.2494 18.2854 26.7262H20.6015C20.6015 26.6324 20.6015 26.571 20.6015 26.4772C20.6319 25.521 20.0424 24.9004 19.1639 24.9004ZM19.1639 25.4597C19.5898 25.4597 19.8827 25.7087 19.9473 26.1705H18.3158C18.3805 25.77 18.6733 25.4597 19.1639 25.4597ZM36.1711 26.4519V23.7891H35.4866V25.337C35.2584 25.0592 34.9313 24.904 34.5054 24.904C33.6231 24.904 32.9385 25.5535 32.9385 26.4519C32.9385 27.3504 33.6231 27.9999 34.5054 27.9999C34.9617 27.9999 35.2888 27.8447 35.4866 27.5669V27.9385H36.1711V26.4519ZM33.6573 26.4519C33.6573 25.9251 34.0148 25.4922 34.6043 25.4922C35.1595 25.4922 35.5512 25.8963 35.5512 26.4519C35.5512 26.9788 35.1595 27.4117 34.6043 27.4117C34.0148 27.3793 33.6573 26.9751 33.6573 26.4519ZM10.7402 26.4519V24.9654H10.0556V25.337C9.82743 25.0592 9.50037 24.904 9.07443 24.904C8.19213 24.904 7.50758 25.5535 7.50758 26.4519C7.50758 27.3504 8.19213 27.9999 9.07443 27.9999C9.5308 27.9999 9.85786 27.8447 10.0556 27.5669V27.9385H10.7402V26.4519ZM8.19593 26.4519C8.19593 25.9251 8.55341 25.4922 9.14289 25.4922C9.69813 25.4922 10.0898 25.8963 10.0898 26.4519C10.0898 26.9788 9.69813 27.4117 9.14289 27.4117C8.55341 27.3793 8.19593 26.9751 8.19593 26.4519Z" fill="white"/>
<path d="M24.1269 2.38477H13.8435V19.9136H24.1269V2.38477Z" fill="#F7E3C1"/>
<path d="M14.5276 11.1495C14.5276 7.58814 16.2922 4.42732 19 2.38505C17.0072 0.898454 14.4934 0 11.7514 0C5.2558 0 0 4.9866 0 11.1495C0 17.3124 5.2558 22.299 11.7514 22.299C14.4934 22.299 17.0072 21.4005 19 19.9139C16.2884 17.9005 14.5276 14.7108 14.5276 11.1495Z" fill="white"/>
<path d="M38 11.1495C38 17.3124 32.7442 22.299 26.2486 22.299C23.5066 22.299 20.9928 21.4005 19 19.9139C21.742 17.868 23.4724 14.7108 23.4724 11.1495C23.4724 7.58814 21.7078 4.42732 19 2.38505C20.989 0.898454 23.5028 0 26.2448 0C32.7442 0 38 5.01907 38 11.1495Z" fill="white"/>
</g>
<defs>
<clipPath id="clip0_505_13153">
<rect width="38" height="28" fill="white"/>
</clipPath>
</defs>
</svg>
