<svg width="41" height="40" viewBox="0 0 41 40" fill="none" xmlns="http://www.w3.org/2000/svg">
<path d="M36.8436 18.2596C36.2886 17.9056 35.6326 17.7949 34.9966 17.948C34.3603 18.1008 33.8203 18.4988 33.4759 19.0688C33.0375 19.7942 32.3614 20.2432 31.6204 20.3012C31.3217 20.325 31.0276 20.2844 30.7481 20.1826C31.9196 19.09 32.8458 17.7679 33.4688 16.2656C33.8253 16.3534 34.1912 16.3989 34.5627 16.3989C37.0093 16.3989 39 14.4719 39 12.1032C39 9.73433 37.0093 7.80725 34.5627 7.80725C34.2956 7.80725 34.0306 7.83073 33.77 7.87625C33.3663 6.76326 32.7628 5.76044 31.96 4.87503C29.694 2.37624 25.9653 1 21.4602 1C17.859 1 14.7488 1.87555 12.4653 3.53156C12.2209 3.70898 12.1627 4.0563 12.3355 4.30737C12.5079 4.55844 12.8461 4.61845 13.0909 4.44102C15.1601 2.93983 18.1323 2.11328 21.4602 2.11328C25.661 2.11328 29.108 3.36369 31.1665 5.63374C31.9594 6.50813 32.5319 7.51791 32.8819 8.65468C32.8842 8.66483 32.8859 8.67497 32.8887 8.68541C32.8935 8.70193 32.8992 8.71817 32.9051 8.73383C33.1716 9.63025 33.3011 10.6044 33.2921 11.6533V11.6623C33.2896 11.9096 33.2797 12.1609 33.2619 12.4164C33.1905 13.4453 32.9898 14.4229 32.6663 15.3378C32.6569 15.357 32.6485 15.377 32.6411 15.3976C32.6341 15.4167 32.6287 15.4364 32.6239 15.4561C32.2951 16.3523 31.8468 17.1872 31.285 17.9491C31.6156 17.0086 31.8344 16.009 31.9264 14.985C32.1285 12.7411 31.6819 10.6499 30.7015 9.24698C29.5128 7.54662 27.9421 6.49132 26.1598 6.19531C24.6385 5.94279 23.019 6.27881 21.7168 7.11725C21.561 7.21785 21.3594 7.21785 21.2036 7.11725C19.9014 6.27852 18.2819 5.9425 16.7606 6.19531C14.978 6.49132 13.4076 7.54662 12.2189 9.24698C11.2382 10.6496 10.7916 12.7411 10.9937 14.985C11.0861 16.009 11.3048 17.0086 11.6354 17.9491C11.0733 17.1872 10.6254 16.3526 10.2962 15.4561C10.2917 15.4364 10.286 15.417 10.2793 15.3976C10.2719 15.377 10.2632 15.3573 10.2539 15.3381C9.93036 14.4229 9.72965 13.4453 9.65823 12.4164C9.56451 11.065 9.68759 9.82565 10.0241 8.70715C10.0263 8.69991 10.0292 8.69295 10.0314 8.68541C10.0323 8.68193 10.0328 8.67845 10.034 8.67497C10.3126 7.76144 10.734 6.92909 11.2981 6.18372C11.4815 5.94077 11.4386 5.59113 11.2024 5.40239C10.9658 5.21394 10.6254 5.25801 10.4419 5.50067C9.89366 6.22546 9.46402 7.01897 9.15293 7.87683C8.89153 7.83102 8.62561 7.80754 8.35772 7.80754C5.91083 7.80754 3.92013 9.73462 3.92013 12.1032C3.92013 14.4722 5.91083 16.3992 8.35772 16.3992C8.72893 16.3992 9.09506 16.3537 9.45131 16.2659C9.81123 17.1333 10.2719 17.941 10.823 18.6791C10.0187 18.8716 9.25851 19.1711 8.55419 19.5753C6.72834 20.6227 5.49643 22.2657 5.0857 24.2015C4.79889 25.5548 5.63729 26.8957 6.95502 27.1905C7.12694 27.2291 7.3028 27.2485 7.47726 27.2485C8.61771 27.2482 9.62181 26.4167 9.86487 25.271C10.0035 24.6178 10.5257 24.198 10.9393 23.9608C11.4807 23.6503 12.1291 23.4773 12.8103 23.4549L12.6347 24.3267C12.3962 25.511 12.4199 26.7116 12.6869 27.8515C11.3613 28.2365 10.3112 29.0341 9.37114 29.7485C7.74798 30.9821 6.67556 31.797 4.38675 30.8243C3.96078 30.6431 3.49161 30.6434 3.06535 30.8246C2.63938 31.0061 2.30769 31.3471 2.13125 31.7845C1.7671 32.6879 2.18687 33.7273 3.06648 34.101C4.16572 34.5683 5.22882 34.8052 6.22615 34.8052C8.5223 34.8052 10.1319 33.582 11.4251 32.5992C12.6079 31.7005 13.3294 31.2241 14.1749 31.1728C14.1627 31.2166 14.1495 31.261 14.1382 31.3039C13.4209 33.9876 13.7969 36.4044 15.1973 38.1082C15.6631 38.675 16.3445 39 17.0672 39C17.6431 39 18.2029 38.7898 18.6435 38.4077C19.1426 37.9751 19.448 37.3686 19.5031 36.7001C19.5581 36.0315 19.3566 35.3813 18.9351 34.8684C18.838 34.7501 18.7728 34.6046 18.731 34.4454C18.7274 34.4266 18.7228 34.4074 18.7172 34.3886C18.6794 34.2198 18.6658 34.0381 18.6681 33.8566C19.2104 33.9766 19.7687 34.0392 20.3361 34.0392H21.9937C23.7414 34.0392 25.4058 33.4513 26.761 32.3876C26.7641 32.3908 26.7673 32.394 26.7704 32.3971C27.1582 32.8175 27.2443 33.2762 27.0577 33.9308C26.6795 35.2601 27.4244 36.6578 28.7187 37.0465C28.9429 37.1138 29.1741 37.148 29.4058 37.148C30.4847 37.148 31.4496 36.4047 31.7525 35.3407C32.0212 34.397 32.1006 33.4536 31.9888 32.5369C31.9518 32.2316 31.6797 32.015 31.3838 32.0536C31.0869 32.0919 30.8763 32.3702 30.9132 32.6752C30.9307 32.8164 30.9403 32.959 30.9466 33.1019L28.1612 32.7117C28.063 32.3276 27.8685 31.9756 27.5752 31.6521C27.7553 31.4651 27.928 31.2691 28.0918 31.0627C28.5186 30.5243 28.8709 29.9404 29.1458 29.3255C29.5049 29.6493 29.8163 30.0079 30.0737 30.3964C30.1787 30.5547 30.3489 30.64 30.5223 30.64C30.6273 30.64 30.7334 30.6086 30.8269 30.5434C31.0741 30.3703 31.1382 30.0242 30.97 29.7699C30.5872 29.1927 30.1082 28.6729 29.5464 28.2218C29.8287 27.2282 29.9227 26.181 29.816 25.133C30.3492 25.2643 30.8955 25.3316 31.449 25.3316C31.6286 25.3316 31.8115 25.3243 31.9927 25.3101C34.3061 25.1289 36.3612 23.8197 37.6312 21.718C38.3428 20.5416 37.9894 18.9899 36.8436 18.2596ZM35.7424 11.4959C35.3743 11.27 34.8924 11.1352 34.3693 11.1048C34.3436 10.3519 34.2499 9.63431 34.0896 8.95242C34.2457 8.93155 34.4038 8.92053 34.5627 8.92053C36.4117 8.92053 37.916 10.3481 37.916 12.1032C37.916 13.8581 36.4117 15.2857 34.5627 15.2857C34.3202 15.2857 34.0808 15.2604 33.8468 15.2117C34.1082 14.353 34.2773 13.4453 34.3433 12.4955C34.3498 12.4033 34.3552 12.3114 34.3597 12.2201C34.686 12.2453 34.9822 12.3262 35.1868 12.4517C35.2738 12.5051 35.3695 12.5306 35.464 12.5306C35.6487 12.5306 35.8285 12.4337 35.9298 12.2592C36.0834 11.9951 35.9993 11.6533 35.7424 11.4959ZM8.35772 15.2857C6.50872 15.2857 5.00412 13.8578 5.00412 12.103C5.00412 10.3481 6.50872 8.92053 8.35772 8.92053C8.5175 8.92053 8.67614 8.93155 8.83281 8.95271C8.67191 9.63489 8.57819 10.353 8.55194 11.1048C8.02857 11.1352 7.54642 11.2697 7.17775 11.4956C6.92087 11.6533 6.83703 11.9951 6.99031 12.2589C7.09193 12.4337 7.27175 12.5303 7.45637 12.5303C7.55065 12.5303 7.64663 12.5048 7.73358 12.4514C7.93824 12.3259 8.23436 12.245 8.56069 12.2198C8.5652 12.3111 8.57057 12.403 8.57706 12.4955C8.64283 13.4453 8.81193 14.353 9.07361 15.2114C8.83931 15.2604 8.60021 15.2857 8.35772 15.2857ZM28.0982 34.243C28.1375 34.1053 28.168 33.9708 28.1906 33.8392L30.8867 34.2172C30.8466 34.4863 30.7893 34.7568 30.712 35.0281C30.5434 35.6207 30.0062 36.0347 29.4058 36.0347C29.2771 36.0347 29.1484 36.0156 29.023 35.9779C28.3023 35.7613 27.8877 34.9832 28.0982 34.243ZM13.0993 9.89639C15.3131 6.72934 18.5537 6.7247 20.6277 8.06035C21.1336 8.38622 21.7868 8.38593 22.2927 8.06035C24.3667 6.7247 27.6071 6.72963 29.8208 9.89639C30.6513 11.0842 31.0253 12.9017 30.8469 14.8827C30.6612 16.9472 29.9137 18.8954 28.7413 20.3804C26.7351 21.7366 24.1942 22.4736 21.4599 22.4736C18.7259 22.4736 16.1853 21.7366 14.1788 20.3804C13.0068 18.8957 12.2592 16.9472 12.0732 14.8827C11.8948 12.9017 12.2688 11.0842 13.0993 9.89639ZM8.806 25.0338C8.6705 25.6719 8.11185 26.1349 7.47726 26.1349C7.38015 26.1349 7.28191 26.1242 7.18565 26.1025C6.45198 25.9384 5.98536 25.1918 6.14513 24.4383C6.25551 23.9182 6.43871 23.4228 6.68713 22.9601L9.0705 24.3085C8.95505 24.525 8.86274 24.7659 8.806 25.0338ZM10.4108 22.9888C10.209 23.1044 9.98936 23.2532 9.77707 23.4373L7.30506 22.0387C7.78157 21.4563 8.37946 20.9506 9.08292 20.5471C9.86063 20.1009 10.7185 19.7997 11.6365 19.6489C12.1348 20.1797 12.6864 20.6645 13.2851 21.0985L13.035 22.3402C12.0887 22.3283 11.1719 22.5521 10.4108 22.9888ZM10.7803 31.7042C9.55435 32.636 8.16464 33.6919 6.22615 33.6919C5.3598 33.6919 4.46184 33.4893 3.48088 33.0724C3.15371 32.9332 2.9976 32.5464 3.13282 32.2104C3.19859 32.0475 3.32195 31.9205 3.4806 31.853C3.63896 31.7857 3.8137 31.7857 3.97207 31.853C6.82771 33.0666 8.37635 31.8895 10.0162 30.6434C10.9266 29.9517 11.8649 29.2397 13.0132 28.9147C13.1741 29.3339 13.3695 29.7406 13.599 30.1306C12.6525 30.3312 11.82 30.9142 10.7803 31.7042ZM15.1595 35.7944C14.7982 34.6886 14.7705 33.3881 15.0895 31.9797C15.828 32.6607 16.6785 33.1869 17.5985 33.5368C17.5779 33.7983 17.5793 34.0436 17.6021 34.2723L15.1595 35.7944ZM18.423 36.6062C18.3923 36.9784 18.2223 37.3159 17.9443 37.5571C17.699 37.7696 17.3876 37.8867 17.0672 37.8867C16.6647 37.8867 16.285 37.7058 16.0256 37.3901C15.8754 37.2074 15.7399 37.0138 15.6185 36.8103L17.9457 35.3604C17.9945 35.4395 18.0482 35.5149 18.1066 35.5862C18.3415 35.8718 18.4538 36.2339 18.423 36.6062ZM27.2514 30.3596C25.9579 31.9907 24.0417 32.9259 21.9937 32.9259H20.3361C18.3592 32.9259 16.5052 32.0542 15.2157 30.5266C15.1694 30.4718 15.1234 30.4161 15.0785 30.3596C13.7853 28.7285 13.2814 26.6118 13.6964 24.552L14.0027 23.0308C14.003 23.0302 14.003 23.0299 14.003 23.0296L14.2632 21.7369C16.2836 22.9218 18.7378 23.5866 21.4599 23.5866C23.948 23.5866 26.212 23.0311 28.1256 22.0312L28.6335 24.552C29.0482 26.6118 28.5445 28.7285 27.2514 30.3596ZM31.9106 24.2C31.1219 24.2618 30.3492 24.1655 29.6127 23.9188L29.1165 21.4539C29.2003 21.3997 29.2833 21.3443 29.3654 21.2881C29.3976 21.2707 29.4281 21.2498 29.4566 21.2255C29.5803 21.1394 29.7019 21.0509 29.8216 20.9608C30.3964 21.3035 31.0516 21.4626 31.7031 21.4113C32.2016 21.3725 32.677 21.2159 33.1061 20.9605L35.0714 22.9786C34.1539 23.6822 33.0699 24.1093 31.9106 24.2ZM36.7106 21.131C36.4664 21.5351 36.1884 21.9045 35.8818 22.2367L33.9535 20.2563C34.1155 20.0745 34.2649 19.8745 34.397 19.6559C34.5887 19.3387 34.8893 19.1169 35.2436 19.0317C35.5976 18.9467 35.9628 19.0085 36.2717 19.2053C36.9096 19.6121 37.1067 20.4758 36.7106 21.131ZM14.8512 13.6441C15.1505 13.6441 15.3932 13.3948 15.3932 13.0875C15.3932 12.71 15.6919 12.403 16.0594 12.403C16.427 12.403 16.7259 12.71 16.7259 13.0875C16.7259 13.3948 16.9684 13.6441 17.2679 13.6441C17.5671 13.6441 17.8099 13.3948 17.8099 13.0875C17.8099 12.0963 17.0246 11.2897 16.0594 11.2897C15.0943 11.2897 14.3092 12.0963 14.3092 13.0875C14.3092 13.3948 14.5517 13.6441 14.8512 13.6441ZM21.1649 24.8007C19.2962 24.8007 17.7758 26.4892 17.7758 28.565C17.7758 30.6405 19.2962 32.329 21.1649 32.329C23.0337 32.329 24.5541 30.6405 24.5541 28.565C24.5541 26.4892 23.0337 24.8007 21.1649 24.8007ZM21.1649 31.2157C19.8938 31.2157 18.8597 30.0268 18.8597 28.5647C18.8597 27.103 19.8938 25.9137 21.1649 25.9137C22.4361 25.9137 23.4701 27.103 23.4701 28.5647C23.4701 30.0268 22.4361 31.2157 21.1649 31.2157ZM25.6525 13.6441C25.952 13.6441 26.1945 13.3948 26.1945 13.0875C26.1945 12.71 26.4934 12.403 26.861 12.403C27.2282 12.403 27.5272 12.71 27.5272 13.0875C27.5272 13.3948 27.7699 13.6441 28.0692 13.6441C28.3687 13.6441 28.6112 13.3948 28.6112 13.0875C28.6112 12.0963 27.8261 11.2897 26.861 11.2897C25.8958 11.2897 25.1105 12.0963 25.1105 13.0875C25.1105 13.3948 25.353 13.6441 25.6525 13.6441ZM21.4602 17.2043C22.6997 17.2043 23.7081 16.0751 23.7081 14.687C23.7081 13.2991 22.6997 12.1699 21.4602 12.1699C20.2207 12.1699 19.2123 13.2991 19.2123 14.687C19.2123 16.0751 20.2207 17.2043 21.4602 17.2043ZM21.4602 13.2832C22.1018 13.2832 22.6241 13.9129 22.6241 14.687C22.6241 15.4613 22.1018 16.091 21.4602 16.091C20.8183 16.091 20.2963 15.4613 20.2963 14.687C20.2963 13.9129 20.8183 13.2832 21.4602 13.2832Z" fill="#EC6708" stroke="#EC6708" stroke-width="0.5"/>
</svg>
