<svg width="159" height="160" viewBox="0 0 159 160" fill="none" xmlns="http://www.w3.org/2000/svg">
<g opacity="0.2" filter="url(#filter0_di_505_12060)">
<path d="M25 89.9985C19.4772 89.9985 15 85.5214 15 79.9985L15 64.9985C15 59.4757 19.4772 54.9985 25 54.9985H54H89L118 54.9985C123.523 54.9985 128 59.4757 128 64.9985V79.9985C128 85.5214 123.523 89.9985 118 89.9985H89H54L25 89.9985Z" fill="white"/>
<path d="M89 25.9985C89 20.4757 84.5229 15.9985 79 15.9985H64C58.4772 15.9985 54 20.4757 54 25.9985V54.9985H89V25.9985Z" fill="white"/>
<path d="M54 118.999C54 124.521 58.4772 128.999 64 128.999H79C84.5229 128.999 89 124.521 89 118.999V89.9985H54V118.999Z" fill="white"/>
</g>
<defs>
<filter id="filter0_di_505_12060" x="0" y="0.998535" width="159" height="159" filterUnits="userSpaceOnUse" color-interpolation-filters="sRGB">
<feFlood flood-opacity="0" result="BackgroundImageFix"/>
<feColorMatrix in="SourceAlpha" type="matrix" values="0 0 0 0 0 0 0 0 0 0 0 0 0 0 0 0 0 0 127 0" result="hardAlpha"/>
<feOffset dx="8" dy="8"/>
<feGaussianBlur stdDeviation="11.5"/>
<feComposite in2="hardAlpha" operator="out"/>
<feColorMatrix type="matrix" values="0 0 0 0 0 0 0 0 0 0 0 0 0 0 0 0 0 0 0.15 0"/>
<feBlend mode="normal" in2="BackgroundImageFix" result="effect1_dropShadow_505_12060"/>
<feBlend mode="normal" in="SourceGraphic" in2="effect1_dropShadow_505_12060" result="shape"/>
<feColorMatrix in="SourceAlpha" type="matrix" values="0 0 0 0 0 0 0 0 0 0 0 0 0 0 0 0 0 0 127 0" result="hardAlpha"/>
<feOffset/>
<feGaussianBlur stdDeviation="5"/>
<feComposite in2="hardAlpha" operator="arithmetic" k2="-1" k3="1"/>
<feColorMatrix type="matrix" values="0 0 0 0 0.741667 0 0 0 0 0.68587 0 0 0 0 0.587153 0 0 0 0.25 0"/>
<feBlend mode="normal" in2="shape" result="effect2_innerShadow_505_12060"/>
</filter>
</defs>
</svg>
