<svg width="37" height="120" viewBox="0 0 37 120" fill="none" xmlns="http://www.w3.org/2000/svg">
<path opacity="0.1" d="M0.210197 98.2721C8.37793 82.081 13.4552 77.05 16.3387 75.7714L16.1594 51.4917C13.3034 55.661 5.8945 65.9455 2.3625 64.3056C-1.16949 62.6656 9.44031 39.8869 16.0076 35.1199L15.9248 23.4873C11.7168 28.2404 4.41824 35.5507 1.57609 32.4654C-2.56296 28.0319 16.3801 -4.25299 20.1329 1.73702C20.1329 1.73702 42.9253 37.0656 35.3094 35.6341C29.6251 34.564 23.2234 26.114 20.4088 22.0141L20.5192 36.9544C23.3751 42.8194 34.9369 67.1547 31.0738 67.1547C28.3834 67.1547 23.8166 60.6504 20.6709 55.5916L20.8227 77.4252C33.7917 90.5171 39.8348 105.221 35.7233 106.236C32.1499 107.139 23.5269 94.0889 20.9193 89.989L21.1676 123.678C21.1713 123.98 21.1155 124.28 21.0036 124.56C20.8917 124.841 20.7258 125.096 20.5155 125.312C20.3053 125.528 20.0547 125.7 19.7783 125.817C19.5019 125.935 19.2051 125.997 18.9049 125.999C18.3023 125.999 17.7239 125.759 17.2952 125.333C16.8664 124.906 16.6219 124.326 16.6147 123.719L16.3801 92.0598C12.6546 95.1539 8.72246 97.9865 4.6114 100.537C-1.45922 104.29 0.210197 98.2721 0.210197 98.2721Z" fill="#F7E3C1"/>
</svg>
