<svg xmlns="http://www.w3.org/2000/svg" width="1440" height="1210" viewBox="0 0 1440 1210" fill="none">
<mask id="mask0_14_101" style="mask-type:alpha" maskUnits="userSpaceOnUse" x="0" y="-1" width="1440" height="1211">
<path d="M0 0C0 0 219.562 -0.000200272 361.5 -0.000200272C503.438 -0.000200272 536 -0.000112584 735 -0.000176003C934 -0.000239422 941.062 2.47955e-05 1083 2.47955e-05C1224.94 2.47955e-05 1440 0 1440 0V1210C1440 1210 1344.31 1210 1283 1210C1161 1210 1115.5 1210 995.5 1210C893.735 1210 811 1210 709 1210C567.548 1210 449.5 1210 311 1210C170.195 1210 0 1210 0 1210V0Z" fill="#F7E3C1"/>
</mask>
<g mask="url(#mask0_14_101)">
<g opacity="0.05">
<path d="M270.698 195.683C283.973 208.069 298.81 218 310.263 232.877C321.716 247.755 329.264 270.071 323.687 289.635C320.972 299.269 315.208 307.823 314.911 318.051C314.539 332.26 324.467 342.934 332.722 352.605C366.189 392.104 382.847 448.565 398.391 502.905L417.355 569.073L464.096 732.168C474.954 770.131 485.824 808.106 496.707 846.093C501.095 861.343 505.446 876.63 508.569 892.363C514.705 923.457 515.783 955.592 516.824 987.802C518.126 1028.12 519.39 1069 512.474 1108.42C528.984 1084.21 536.197 1052.22 540.808 1020.87C555.015 924.154 548.924 825.541 522.922 731.313C514.816 702.376 504.813 674.332 494.848 646.325C486.568 623.041 478.288 599.783 470.009 576.549C431.745 469.059 393.296 360.824 371.32 246.379C360.723 190.997 353.695 133.235 331.123 83.8786C313.758 45.9408 242.401 -39.1589 214.735 28.0877C191.011 85.8498 236.6 163.697 270.698 195.683Z" fill="#C48321"/>
<path d="M361.169 30.4681C361.169 74.5801 371.99 122.932 381.212 164.85C389.876 204.126 402.556 241.915 410.327 283.275C418.099 324.635 437.435 350.224 450.487 389.464C461.642 423.385 476.999 501.789 506.078 516.816C526.158 482.486 532.739 442.688 557.616 412.673C580.596 384.926 605.101 362.387 619.863 328.391C638.828 284.651 655.635 239.461 681.367 202.192C707.38 164.241 726.663 122.092 738.371 77.5928C743.651 57.4337 746.998 26.5999 726.137 21.8019C703.827 16.5204 693.155 59.219 685.234 77.5928C676.942 96.5617 669.728 120.887 661.362 137.475C649.574 160.982 635.63 179.913 626.519 151.981C618.673 127.879 615.178 23.4756 579.741 30.5053C541.775 37.9441 586.806 139.855 593.313 161.056C605.993 202.267 607.63 282.531 586.137 315.113C569.999 339.587 513.85 424.091 487.932 420.483C483.73 402.258 485.143 387.53 479.342 369.491C473.673 353.632 469.794 337.19 467.778 320.469C462.088 272.117 455.06 224.881 454.8 175.933C454.54 119.845 437.844 -29.1166 361.169 30.4681Z" fill="#C48321"/>
<path d="M811.7 33.332C789.017 42.4074 765.999 104.782 753.654 128.809C746.887 141.975 734.801 158.564 730.116 171.731C723.832 189.249 723.72 207.771 715.651 224.546C702.153 252.627 681.553 278.477 664.634 302.951C644.889 331.441 631.168 363.577 616.294 394.968C586.546 456.673 556.984 518.043 546.609 586.294C542.836 607.636 541.279 629.311 541.961 650.974C543.188 677.01 552.67 693.933 557.467 719.485C564.198 755.601 574.833 793.278 580.262 831.439C586.414 876.348 589.272 921.647 588.814 966.974C588.814 991.075 591.194 1018.19 587.922 1041.77C585.43 1059.88 575.279 1079.49 577.659 1102.69C582.679 1087.82 599.709 1048.17 606.663 1016.89C614.881 979.694 612.687 939.636 615.55 900.211C618.636 857.809 624.474 816.375 624.474 773.751C624.474 733.433 617.781 698.731 617.781 656.479C617.781 607.755 612.873 566.767 636.931 526.709C662.96 483.341 694.791 456.041 727.402 421.153C755.29 391.398 765.665 358.593 785.15 322.217C803.742 287.366 822.334 253.892 842.005 222.575C856.173 200.035 865.655 174.557 875.955 149.861C884.842 128.511 913.14 61.2275 916.04 36.9399C922.77 -20.1528 843.158 22.1739 811.7 33.332Z" fill="#C48321"/>
<path d="M494.96 38.911C506.673 80.6426 501.653 139.744 501.653 184.414V234.179C501.653 259.917 495.443 282.271 494.922 306.001C511.023 316.787 541.366 172.102 544.043 149.786C551.927 84.5852 542.891 -5.46129 494.96 38.911Z" fill="#C48321"/>
<path d="M904.029 184.116C890.643 219.822 879.301 254.264 864.874 290.156C850.673 326.89 832.795 362.093 811.514 395.229C794.632 421.637 784.257 452.507 766.594 478.618C723.683 541.847 686.721 611.735 669.914 692.892C663.072 726.366 653.887 765.643 649.871 797.035C645.409 831.662 649.871 871.98 649.871 907.091C649.871 954.105 658.796 997.436 658.796 1045.86C658.796 1085.51 651.359 1155.99 678.801 1183.48C699.811 1156.1 680.437 1096.45 678.801 1064.16C676.421 1014.99 691.221 986.054 700.108 940.864C716.804 855.727 713.048 765.085 735.768 681.845C747.221 640.039 768.305 594.067 786.972 555.832C804.262 520.424 835.87 498.74 862.196 476.014C930.914 416.727 972.895 342.488 1006.06 248.015C1023.8 197.469 1034.4 134.648 1037.89 79.4525C1040.01 45.6432 1047.26 10.1974 1015.58 4.8415C938.946 -7.9904 913.549 158.787 904.029 184.116Z" fill="#C48321"/>
<path d="M749.229 1165.74C733.5 1131.74 733.983 1119.65 742.833 1093.02C747.035 1080.34 746.552 1043.41 747.853 1028.72C751.572 983.562 767.598 918.436 780.464 874.882C792.326 834.749 805.267 789.633 822.297 752.662C838.435 717.626 846.876 716.064 867.439 684.151C885.4 656.33 912.321 630.146 929.241 603.031C948.316 572.569 972.635 545.195 992.455 514.584C1031.02 455.074 1068.46 390.505 1073.55 312.584C1076.98 259.88 1083.78 210.189 1083.78 155.812C1083.78 105.897 1082.48 55.3881 1084 5.65981C1145.14 -15.1316 1135.06 186.013 1135.06 225.848C1135.06 317.01 1107.24 384.777 1081.33 467.794C1068.76 508.001 1038.12 555.869 1014.69 588.414C1003.16 604.407 988.104 626.426 974.643 639.853C958.654 655.772 936.454 663.657 920.167 679.539C894.473 704.533 870.303 750.022 854.09 786.509C836.204 826.753 830.329 864.281 820.624 908.616C799.131 1007.63 745.697 1102.73 744.693 1207.88" fill="#C48321"/>
<path d="M461.531 1101.09C462.163 1072.72 464.654 1042.63 462.163 1014.77C457.663 964.705 456.511 914.344 445.281 865.992C435.836 825.079 440.038 776.057 423.788 739.049C407.91 702.934 382.29 671.022 368.643 638.626C351.092 596.894 346.332 551.443 324.914 514.287C301.748 474.303 275.384 450.834 265.418 402.705C256.01 357.328 243.777 313.439 237.269 266.798C231.208 223.319 222.395 172.958 200.903 134.537C180.079 97.4544 143.378 89.3089 115.787 64.6122C95.2978 46.2756 49.0399 -21.157 19.7383 -5.12641L-18.5248 10.3834C-70.695 -4.27095 -72.8517 106.083 -62.9234 146.811C-48.9419 204.424 5.79404 182.108 40.5246 214.876C71.0905 243.812 130.14 305.963 152.562 343.901C177.55 386.154 181.79 449.718 204.993 493.83C224.589 531.024 259.097 561.114 278.581 598.531C297.397 634.72 305.987 673.737 321.79 712.493C335.772 746.749 357.339 781.897 373.068 814.107C386.975 842.523 392.516 872.464 403.559 899.876C412.149 921.039 409.881 949.753 414.715 972.032C418.433 989.476 428.696 1008.04 432.564 1026.89C441.228 1069.29 428.287 1115.71 435.278 1158.37C468.744 1167.75 460.824 1132.45 461.531 1101.09Z" fill="#C48321"/>
<path d="M369.349 1050.55C358.194 1014.51 345.44 973.111 328.446 942.686C312.829 914.828 289.253 888.569 271.145 863.314C258.405 846.554 248.183 828.022 240.802 808.304C232.547 786.472 222.544 773.9 212.764 757.944C193.689 726.85 181.641 686.271 162.974 652.35C144.307 618.429 118.352 592.84 95.7812 559.589C80.9073 537.719 60.8275 513.58 44.7265 490.334C25.1673 462.066 -1.60575 447.337 -32.2832 450.015L-72.0337 471.29C-70.4719 521.428 -68.7242 546.385 -36.4479 576.995C-19.5288 593.026 -1.41982 609.577 17.9163 621.256C62.9842 648.408 105.97 680.283 140.626 727.594C168.552 765.792 185.248 816.45 212.913 853.607C231.766 878.675 245.19 892.4 248.871 927.994C252.094 958.419 250.209 989.168 243.293 1018.97C233.365 1065.02 208.116 1109.09 232.881 1159.38C256.122 1146.4 262.146 1122.18 266.72 1093.92C268.318 1084.1 266.348 1061.15 269.806 1052.71C274.677 1040.69 290.667 1027.86 299.554 1019.83C315.72 1029.07 329.559 1041.9 340.011 1057.32C352.616 1076.62 350.757 1087.07 356.298 1108.46C360.909 1126.2 363.065 1164.58 370.391 1179.13C385.265 1208.06 406.571 1199.58 407.315 1170.46C408.208 1135.28 380.393 1085.62 369.349 1050.55Z" fill="#C48321"/>
<path d="M-15.6987 776.764C18.6229 800.159 58.6709 815.594 89.6086 849.664C106.937 868.856 118.91 893.962 133.487 915.944C145.125 933.425 161.375 947.373 174.39 966.453C168.998 928.738 168.106 888.346 155.537 855.541C143.229 823.901 127.809 793.563 109.502 764.974C100.868 751.961 89.7539 740.779 76.795 732.067C63.8361 723.356 49.287 717.286 33.9802 714.204C22.8247 711.786 -15.8846 700.851 -26.8541 704.794C-53.4412 714.39 -57.1597 744.777 -15.6987 776.764Z" fill="#C48321"/>
<path d="M-39.2739 918.101C-5.80762 918.101 22.0809 917.059 53.1674 929.445C75.8501 938.483 120.1 949.827 136.573 969.986C144.01 979.285 144.753 994.572 153.343 1007.85C162.974 1022.73 174.576 1029.79 181.604 1048.06C189.338 1068.22 187.59 1088.15 189.041 1109.65C190.305 1129.92 196.924 1152.13 193.912 1172.32C181.827 1170.57 177.253 1154.69 168.812 1143.01C165.094 1138.03 155.5 1132.67 153.12 1127.87C148.509 1118.65 152.042 1109.95 148.212 1101.02C139.25 1080.3 115.563 1040.06 98.3097 1028.34C77.7466 1014.4 36.2112 1013.69 12.7848 1010.53C-1.19671 1008.63 -28.1185 1019.45 -40.3523 1010.79C-56.7879 999.072 -51.4705 965.932 -39.2739 918.101Z" fill="#C48321"/>
<path d="M1170.79 36.0844C1159.45 73.8362 1181.95 120.254 1185.15 159.754C1188.01 196.725 1188.64 235.369 1188.64 273.791C1188.64 353.906 1160.16 427.216 1139.59 496.954C1128.81 533.404 1116.35 558.919 1115.02 598.94C1113.64 640.523 1113.45 683.63 1115.02 725.399C1116.39 761.552 1126.17 794.171 1126.17 831.03C1126.17 869.042 1131.56 905.418 1137.14 941.347C1144.28 987.542 1150.3 1035.78 1157.41 1081.38C1162.91 1116.87 1157.85 1175.59 1181.32 1198.84C1207.35 1127.99 1183.06 1061.22 1171.13 993.195C1158.97 923.792 1166.33 842.746 1166.33 770.887C1166.33 676.415 1180.13 595.555 1214.04 512.576C1229.69 474.266 1248.81 430.005 1255.69 386.823C1260.56 355.952 1261.49 328.577 1269.04 299.938C1277.4 267.914 1277.77 236.894 1277.77 203.42C1277.77 151.125 1283.13 94.6648 1263.2 47.4657C1257.13 33.6203 1247.62 21.5588 1235.57 12.4291C1206.16 -10.222 1188.16 5.95732 1170.79 36.0844Z" fill="#C48321"/>
<path d="M793.851 1179.76C793.851 1123.08 789.686 1054.42 812.183 1006.25C832.709 962.324 869.15 935.805 890.754 892.065C912.582 847.767 930.393 797.518 955.939 755.712C983.567 710.261 1016.36 684.226 1057.16 660.756C1064.82 675.076 1064.89 711.042 1066.19 728.04C1067.72 748.087 1067.68 764.527 1070.54 783.57C1076.12 820.764 1085.42 859.632 1088.28 895.152C1090.51 922.824 1088.99 947.224 1099.44 973.259C1106.87 992.265 1113.57 1002.31 1117.25 1023.99C1120.78 1044.93 1154.95 1142.31 1126.58 1143.72C1122.04 1111.7 1106.09 1097.93 1093.93 1070.74C1084.3 1049.14 1079.95 1024.22 1074.56 999.89C1067.68 968.61 1051.76 947.41 1041.87 919.477C1032.69 893.441 1029.86 862.05 1012.5 840.291C980.779 800.419 952.072 846.056 934.632 877.857C924.146 897.086 891.795 929.333 902.058 946.926C911.02 962.324 961.033 963.254 942.962 996.32C932.55 1015.44 883.131 1000.56 866.882 1008.41C844.199 1019.38 839.402 1059.07 831.668 1086.11C826.573 1103.96 819.471 1117.09 816.013 1134.98C811.923 1156.07 814.563 1173.25 793.851 1179.76Z" fill="#C48321"/>
<path d="M1086.05 1134.79C1068.24 1126.16 1057.64 1087.48 1043.62 1070.78C1022.72 1045.86 1012.79 1017.71 981.187 1019.57C954.08 1021.13 922.584 1039.43 899.939 1056.98C888.969 1065.46 839.811 1099.01 873.352 1109.65C895.439 1094.96 895.663 1086.92 922.882 1087.04C943.11 1087.04 965.198 1084.06 985.278 1087.04C1023.36 1092.69 1039.53 1137.14 1086.05 1134.79Z" fill="#C48321"/>
<path d="M1318.01 44.4901C1306.85 90.313 1330.5 145.769 1331.47 192.485C1332.1 222.686 1331.47 253.036 1331.47 283.238C1331.47 349.927 1312.24 425.17 1294.69 489.552C1260.3 615.677 1217.68 738.008 1217.68 875.328C1217.68 915.572 1204.04 1104.85 1252.34 1106.79C1224.9 1098.64 1241 954.29 1245.2 927.92C1253.57 875.625 1254.57 782.492 1295.99 748.98C1304.58 778.289 1301.09 838.245 1298.04 870.455C1294.06 912.299 1291.31 953.658 1291.31 998.254C1291.31 1072.38 1287.33 1144.76 1263.09 1213.64C1298.75 1223.39 1295.92 1152.5 1302.35 1129.25C1312.84 1091.2 1329.27 1054.86 1339.54 1016.66C1351.14 972.887 1356.12 945.252 1356.12 897.644V756.716C1356.12 739.347 1358.39 719.336 1355.23 702.525C1352.55 688.242 1342.1 673.997 1340.62 656.999C1335.93 603.329 1351.21 564.684 1360.7 513.766C1376.09 430.86 1396.28 352.679 1396.28 264.938C1396.28 203.568 1392.3 157.374 1376.28 99.4999C1368.43 72.0136 1349.95 12.6893 1318.01 44.4901Z" fill="#C48321"/>
<path d="M1411.64 38.9111C1442.54 100.058 1422.79 184.748 1427.26 254.041C1429.64 291.235 1440.75 320.023 1440.64 357.365C1440.64 393.629 1443.65 426.62 1445.1 461.099C1448.04 532.363 1450.27 611.139 1445.1 682.143C1440.16 749.724 1419.08 811.987 1413.76 881.205C1407.21 966.974 1388.06 1050.85 1389.33 1141C1394.75 1145.7 1400.64 1149.81 1406.92 1153.28C1432.61 1119.8 1428.52 1098.12 1431.72 1054.71C1434.28 1019.86 1442.02 988.583 1447.34 956.001C1458.49 887.937 1473.55 813.549 1490.06 746.042C1509.47 666.744 1512 589.195 1512 504.69C1512 454.627 1512 416.467 1497.13 371.053C1486.54 338.179 1478.18 304.628 1472.1 270.629C1464.18 229.716 1461.21 196.241 1458.45 152.65C1456.97 129.218 1455.67 101.657 1450.76 80.0104C1445.1 54.3094 1427.63 41.6263 1411.64 38.9111Z" fill="#C48321"/>
<path d="M903.323 513.617C892.688 521.688 881.272 536.231 871.307 542.666C855.243 552.968 841.819 560.481 830.775 580.864C823.115 594.997 819.397 614.152 811.625 628.993C804.746 642.085 795.487 656.07 789.612 668.455C776.411 696.276 758.153 729.565 767.301 763.039C772.804 749.984 780.948 739.607 786.563 727.519C793.144 713.311 798.573 699.401 808.873 688.243C825.978 669.646 846.356 654.433 863.684 636.394C883.094 616.198 896.332 586.852 915.742 564.87C935.153 542.889 947.535 521.8 964.083 494.723C1012.68 414.421 946.494 479.324 941.474 483.564C928.98 494.537 916.263 503.761 903.323 513.617Z" fill="#C48321"/>
<path d="M267.128 685.044C236.228 639.109 177.327 512.538 155.239 467.757C139.213 435.249 120.62 408.842 101.731 378.008C89.4225 357.923 75.7013 348.253 61.8314 330.288C52.3825 317.795 40.2127 307.62 26.2455 300.533C7.91346 290.825 -6.14239 281.936 -17.8184 260.996C-25.5157 247.16 -49.3883 213.983 -50.2435 200.705C-72.2569 243.403 -75.5663 276.059 -51.5078 301.128C-32.4692 320.953 -22.8755 373.545 -4.50626 394.113C11.7807 412.189 27.2867 403.597 45.6932 427.811C60.8274 447.784 83.7332 459.723 97.975 480.514C116.865 508.112 134.119 537.458 155.314 562.341C164.647 573.276 173.2 583.69 182.384 592.877C194.916 605.449 210.608 654.359 216.892 669.906C223.585 686.457 256.419 727.408 265.232 741.058C275.569 757.125 280.478 807.263 296.988 827.124C295.166 789.559 298.141 731.053 267.128 685.044Z" fill="#C48321"/>
</g>
</g>
</svg>