<svg xmlns="http://www.w3.org/2000/svg" width="1440" height="61" viewBox="0 0 1440 61" fill="none">
<mask id="mask0_14_43" style="mask-type:alpha" maskUnits="userSpaceOnUse" x="0" y="0" width="1440" height="61">
<path d="M0 30.936C0 30.936 218.062 60.8717 360 60.8717C501.938 60.8717 545 17.9639 729 39.4177C913 60.8716 938.062 1.00043 1080 1.00043C1221.94 1.00043 1440 30.936 1440 30.936V6.20986e-05C1440 6.20986e-05 1344 7.545e-05 1283 6.20986e-05C1222 4.87471e-05 1118.79 0.000166639 997.5 0.000107398C894.5 5.70918e-05 858 6.20986e-05 715 6.20986e-05C572 6.20986e-05 462.5 8.81959e-05 321 6.20986e-05C179.5 3.60012e-05 0 6.20986e-05 0 6.20986e-05L0 30.936Z" fill="white"/>
</mask>
<g mask="url(#mask0_14_43)">
<rect x="-176" y="-355" width="1646" height="614" fill="#FFFBF2"/>
</g>
</svg>