<svg width="1440" height="1481" viewBox="0 0 1440 1481" fill="none" xmlns="http://www.w3.org/2000/svg">
<g opacity="0.05">
<path d="M131.555 252.753C149.238 269.252 169.002 282.481 184.259 302.3C199.515 322.118 209.571 351.846 202.141 377.907C198.525 390.74 190.847 402.135 190.451 415.76C189.955 434.687 203.181 448.907 214.177 461.789C258.758 514.407 280.949 589.618 301.654 662.005L326.917 750.147L389.181 967.407C403.645 1017.98 418.125 1068.56 432.622 1119.17C438.467 1139.48 444.263 1159.84 448.424 1180.8C456.597 1222.22 458.033 1265.03 459.42 1307.94C461.154 1361.65 462.838 1416.1 453.625 1468.62C475.618 1436.36 485.227 1393.75 491.369 1351.98C510.294 1223.15 502.18 1091.79 467.544 966.268C456.745 927.721 443.421 890.363 430.145 853.055C419.116 822.039 408.086 791.056 397.057 760.106C346.086 616.918 294.868 472.738 265.594 320.285C251.476 246.511 242.114 169.565 212.047 103.818C188.915 53.2806 93.8593 -60.081 57.006 29.4984C25.4033 106.444 86.1319 210.144 131.555 252.753Z" fill="#C48321"/>
<path d="M252.072 32.6695C252.072 91.4313 266.487 155.841 278.771 211.68C290.312 264.001 307.204 314.339 317.556 369.435C327.909 424.53 353.666 458.618 371.053 510.889C385.913 556.075 406.371 660.519 445.106 680.535C471.855 634.804 480.622 581.79 513.76 541.806C544.372 504.844 577.015 474.82 596.68 429.534C621.943 371.268 644.332 311.069 678.609 261.424C713.261 210.869 738.949 154.722 754.545 95.4445C761.579 68.5905 766.037 27.5167 738.248 21.1252C708.528 14.0897 694.312 70.9687 683.761 95.4445C672.715 120.713 663.105 153.116 651.96 175.214C636.258 206.527 617.683 231.746 605.547 194.537C595.095 162.431 590.439 23.3548 543.233 32.719C492.659 42.6283 552.644 178.385 561.313 206.626C578.204 261.523 580.384 368.444 551.753 411.846C530.255 444.448 455.459 557.017 420.934 552.211C415.336 527.933 417.219 508.313 409.491 484.283C401.939 463.158 396.772 441.255 394.086 418.981C386.507 354.571 377.146 291.647 376.799 226.445C376.452 151.729 354.211 -46.7035 252.072 32.6695Z" fill="#C48321"/>
<path d="M852.223 36.4844C822.007 48.5737 791.345 131.663 774.9 163.669C765.885 181.209 749.786 203.306 743.545 220.846C735.174 244.182 735.025 268.856 724.276 291.201C706.296 328.609 678.854 363.043 656.316 395.645C630.013 433.597 611.735 476.405 591.922 518.222C552.294 600.419 512.915 682.17 499.095 773.087C494.069 801.517 491.994 830.391 492.903 859.248C494.538 893.93 507.169 916.474 513.559 950.512C522.525 998.621 536.691 1048.81 543.923 1099.65C552.119 1159.47 555.926 1219.81 555.316 1280.19C555.316 1312.3 558.486 1348.42 554.127 1379.83C550.808 1403.96 537.286 1430.07 540.456 1460.99C547.143 1441.17 569.83 1388.35 579.092 1346.68C590.039 1297.14 587.117 1243.78 590.931 1191.26C595.042 1134.77 602.819 1079.58 602.819 1022.8C602.819 969.092 593.903 922.865 593.903 866.581C593.903 801.675 587.365 747.076 619.413 693.714C654.087 635.943 696.488 599.577 739.929 553.102C777.08 513.465 790.9 469.766 816.855 421.309C841.622 374.885 866.389 330.293 892.593 288.575C911.465 258.55 924.097 224.611 937.817 191.713C949.656 163.273 987.351 73.6441 991.215 41.2904C1000.18 -34.7629 894.129 21.6206 852.223 36.4844Z" fill="#C48321"/>
<path d="M430.296 43.9163C445.899 99.5071 439.212 178.236 439.212 237.741V304.034C439.212 338.32 430.94 368.097 430.246 399.707C451.694 414.076 492.114 221.341 495.68 191.613C506.182 104.759 494.145 -15.1922 430.296 43.9163Z" fill="#C48321"/>
<path d="M975.218 237.345C957.386 284.909 942.278 330.789 923.059 378.601C904.142 427.534 880.327 474.428 851.978 518.569C829.489 553.747 815.669 594.87 792.141 629.651C734.978 713.88 685.742 806.977 663.352 915.087C654.238 959.678 642.003 1012 636.654 1053.82C630.709 1099.94 636.654 1153.65 636.654 1200.42C636.654 1263.05 648.542 1320.77 648.542 1385.28C648.542 1438.1 638.635 1531.99 675.191 1568.6C703.178 1532.13 677.37 1452.66 675.191 1409.66C672.021 1344.16 691.735 1305.61 703.574 1245.41C725.815 1132 720.812 1011.26 751.077 900.372C766.334 844.682 794.419 783.443 819.285 732.509C842.319 685.341 884.423 656.456 919.493 626.183C1011.03 547.207 1066.96 448.312 1111.14 322.465C1134.77 255.132 1148.88 171.448 1153.54 97.9218C1156.36 52.8843 1166.02 5.66683 1123.82 -1.46781C1021.73 -18.5612 987.899 203.604 975.218 237.345Z" fill="#C48321"/>
<path d="M769.007 1544.97C748.054 1499.68 748.698 1483.58 760.487 1448.1C766.085 1431.21 765.441 1382.01 767.174 1362.44C772.128 1302.29 793.477 1215.53 810.616 1157.52C826.417 1104.06 843.655 1043.96 866.341 994.707C887.839 948.035 899.083 945.954 926.476 903.443C950.401 866.383 986.263 831.502 1008.8 795.383C1034.21 754.805 1066.61 718.339 1093.01 677.562C1144.38 598.289 1194.26 512.276 1201.04 408.477C1205.6 338.27 1214.66 272.077 1214.66 199.64C1214.66 133.149 1212.93 65.8654 1214.96 -0.37779C1296.4 -28.0741 1282.97 239.872 1282.97 292.936C1282.97 414.373 1245.92 504.646 1211.4 615.233C1194.65 668.793 1153.84 732.559 1122.63 775.912C1107.27 797.217 1087.21 826.548 1069.28 844.434C1047.98 865.64 1018.41 876.144 996.715 897.3C962.487 930.595 930.29 991.19 908.693 1039.79C884.867 1093.4 877.041 1143.4 864.112 1202.45C835.482 1334.35 764.301 1461.04 762.964 1601.1" fill="#C48321"/>
<path d="M385.763 1458.86C386.605 1421.05 389.924 1380.97 386.605 1343.86C380.611 1277.17 379.076 1210.08 364.116 1145.67C351.535 1091.17 357.132 1025.87 335.486 976.574C314.335 928.464 280.206 885.954 262.027 842.799C238.647 787.208 232.307 726.663 203.775 677.166C172.915 623.904 137.796 592.64 124.521 528.527C111.988 468.081 95.6918 409.617 87.0233 347.486C78.9493 289.566 67.2097 222.481 38.5791 171.3C10.8401 121.902 -38.05 111.051 -74.8042 78.1528C-102.097 53.7265 -163.718 -36.1007 -202.75 -14.7463L-253.721 5.91449C-323.217 -13.6067 -326.09 133.397 -312.865 187.65C-294.24 264.397 -221.326 234.669 -175.061 278.319C-134.344 316.866 -55.6841 399.658 -25.8151 450.195C7.47174 506.479 13.1186 591.154 44.0278 649.916C70.1322 699.462 116.1 739.545 142.056 789.388C167.12 837.597 178.562 889.57 199.614 941.198C218.239 986.83 246.969 1033.65 267.921 1076.56C286.447 1114.41 293.828 1154.3 308.539 1190.81C319.982 1219 316.96 1257.25 323.399 1286.93C328.353 1310.17 342.024 1334.89 347.176 1360.01C358.717 1416.49 341.479 1478.33 350.792 1535.16C395.372 1547.64 384.822 1500.62 385.763 1458.86Z" fill="#C48321"/>
<path d="M262.968 1391.52C248.108 1343.51 231.118 1288.37 208.481 1247.84C187.677 1210.73 156.272 1175.75 132.149 1142.11C115.179 1119.78 101.562 1095.09 91.7294 1068.83C80.7328 1039.74 67.4082 1023 54.3808 1001.74C28.9698 960.322 12.9208 906.267 -11.9452 861.081C-36.8113 815.895 -71.386 781.807 -101.453 737.513C-121.267 708.38 -148.015 676.225 -169.463 645.258C-195.518 607.603 -231.183 587.983 -272.048 591.55L-325 619.891C-322.92 686.679 -320.591 719.924 -277.596 760.701C-255.058 782.055 -230.935 804.103 -205.177 819.661C-145.142 855.829 -87.8808 898.291 -41.7152 961.313C-4.51514 1012.2 17.7256 1079.68 54.5789 1129.18C79.6926 1162.57 97.5744 1180.85 102.478 1228.27C106.772 1268.8 104.261 1309.76 95.0482 1349.46C81.8226 1410.8 48.189 1469.51 81.1787 1536.49C112.137 1519.2 120.162 1486.95 126.255 1449.29C128.385 1436.21 125.759 1405.64 130.366 1394.4C136.855 1378.39 158.154 1361.3 169.993 1350.6C191.529 1362.92 209.963 1380 223.886 1400.54C240.678 1426.25 238.201 1440.18 245.582 1468.67C251.724 1492.3 254.597 1543.43 264.355 1562.8C284.169 1601.35 312.552 1590.05 313.543 1551.26C314.731 1504.39 277.68 1438.24 262.968 1391.52Z" fill="#C48321"/>
<path d="M-249.958 1026.81C-204.238 1057.98 -150.89 1078.54 -109.677 1123.92C-86.5944 1149.49 -70.6445 1182.93 -51.2272 1212.22C-35.723 1235.5 -14.0767 1254.08 3.26019 1279.5C-3.92224 1229.26 -5.11103 1175.45 -21.8535 1131.75C-38.249 1089.6 -58.7909 1049.19 -83.1766 1011.11C-94.678 993.773 -109.484 978.878 -126.746 967.273C-144.009 955.668 -163.39 947.582 -183.78 943.477C-198.64 940.256 -250.205 925.69 -264.818 930.942C-300.235 943.724 -305.188 984.204 -249.958 1026.81Z" fill="#C48321"/>
<path d="M-281.36 1215.09C-236.78 1215.09 -199.629 1213.7 -158.219 1230.2C-128.003 1242.24 -69.0577 1257.35 -47.1142 1284.21C-37.2074 1296.59 -36.2167 1316.96 -24.7743 1334.64C-11.945 1354.46 3.50957 1363.88 12.8715 1388.2C23.1746 1415.06 20.8465 1441.61 22.7783 1470.25C24.4624 1497.25 33.2795 1526.83 29.2672 1553.74C13.1687 1551.41 7.07601 1530.25 -4.16821 1514.69C-9.1216 1508.06 -21.9014 1500.92 -25.0715 1494.53C-31.2137 1482.24 -26.508 1470.65 -31.61 1458.76C-43.5477 1431.16 -75.1008 1377.55 -98.0846 1361.94C-125.477 1343.36 -180.806 1342.42 -212.013 1338.21C-230.638 1335.68 -266.5 1350.1 -282.797 1338.56C-304.691 1322.95 -297.607 1278.81 -281.36 1215.09Z" fill="#C48321"/>
<path d="M1330.57 40.1509C1315.47 90.4402 1345.43 152.274 1349.69 204.892C1353.51 254.141 1354.35 305.619 1354.35 356.8C1354.35 463.523 1316.41 561.178 1289.02 654.077C1274.65 702.633 1258.06 736.621 1256.27 789.933C1254.44 845.326 1254.19 902.75 1256.27 958.39C1258.11 1006.55 1271.13 1050 1271.13 1099.1C1271.13 1149.74 1278.32 1198.19 1285.75 1246.06C1295.26 1307.59 1303.28 1371.85 1312.74 1432.6C1320.07 1479.86 1313.34 1558.1 1344.59 1589.06C1379.27 1494.68 1346.92 1405.74 1331.02 1315.12C1314.82 1222.67 1324.63 1114.71 1324.63 1018.99C1324.63 893.138 1343.01 785.424 1388.18 674.887C1409.04 623.854 1434.5 564.894 1443.66 507.371C1450.15 466.248 1451.39 429.782 1461.44 391.631C1472.59 348.972 1473.08 307.651 1473.08 263.059C1473.08 193.397 1480.22 118.186 1453.67 55.312C1445.58 36.8684 1432.91 20.8013 1416.86 8.63953C1377.68 -21.5341 1353.71 0.0184891 1330.57 40.1509Z" fill="#C48321"/>
<path d="M828.448 1563.65C828.448 1488.14 822.9 1396.68 852.868 1332.51C880.211 1274 928.754 1238.67 957.534 1180.41C986.61 1121.4 1010.34 1054.46 1044.37 998.77C1081.17 938.225 1124.86 903.542 1179.2 872.279C1189.4 891.354 1189.5 939.265 1191.23 961.908C1193.27 988.613 1193.22 1010.51 1197.03 1035.88C1204.46 1085.43 1216.84 1137.2 1220.66 1184.52C1223.63 1221.38 1221.6 1253.88 1235.52 1288.57C1245.43 1313.88 1254.34 1327.26 1259.24 1356.15C1263.95 1384.04 1309.47 1513.75 1271.68 1515.64C1265.63 1472.98 1244.38 1454.64 1228.19 1418.43C1215.36 1389.64 1209.56 1356.44 1202.38 1324.04C1193.22 1282.37 1172.02 1254.13 1158.84 1216.92C1146.6 1182.24 1142.84 1140.42 1119.71 1111.44C1077.46 1058.32 1039.22 1119.12 1015.98 1161.48C1002.02 1187.1 958.92 1230.05 972.592 1253.49C984.53 1274 1051.15 1275.24 1027.08 1319.28C1013.21 1344.75 947.379 1324.93 925.733 1335.39C895.517 1350 889.127 1402.87 878.824 1438.89C872.038 1462.67 862.577 1480.16 857.97 1503.99C852.522 1532.09 856.038 1554.98 828.448 1563.65Z" fill="#C48321"/>
<path d="M1217.69 1503.74C1193.96 1492.25 1179.84 1440.72 1161.17 1418.48C1133.33 1385.28 1120.1 1347.77 1078 1350.25C1041.89 1352.33 999.935 1376.71 969.769 1400.09C955.156 1411.39 889.672 1456.08 934.352 1470.25C963.775 1450.68 964.072 1439.98 1000.33 1440.13C1027.28 1440.13 1056.7 1436.16 1083.45 1440.13C1134.17 1447.66 1155.72 1506.87 1217.69 1503.74Z" fill="#C48321"/>
<path d="M1526.68 51.3482C1511.82 112.389 1543.32 186.262 1544.61 248.492C1545.45 288.724 1544.61 329.154 1544.61 369.385C1544.61 458.221 1519 558.453 1495.62 644.218C1449.8 812.229 1393.04 975.186 1393.04 1158.11C1393.04 1211.72 1374.86 1463.86 1439.2 1466.44C1402.65 1455.59 1424.1 1263.3 1429.69 1228.17C1440.84 1158.51 1442.18 1034.44 1497.36 989.802C1508.8 1028.84 1504.14 1108.71 1500.08 1151.62C1494.78 1207.36 1491.11 1262.45 1491.11 1321.86C1491.11 1420.61 1485.81 1517.02 1453.52 1608.78C1501.02 1621.76 1497.26 1527.33 1505.83 1496.36C1519.8 1445.68 1541.69 1397.27 1555.36 1346.39C1570.82 1288.07 1577.45 1251.26 1577.45 1187.84V1000.11C1577.45 976.97 1580.47 950.314 1576.26 927.919C1572.7 908.893 1558.78 889.917 1556.8 867.275C1550.56 795.779 1570.91 744.301 1583.55 676.472C1604.05 566.034 1630.95 461.888 1630.95 345.008C1630.95 263.257 1625.65 201.721 1604.3 124.627C1593.85 88.0124 1569.23 8.98626 1526.68 51.3482Z" fill="#C48321"/>
<path d="M974.275 676.274C960.109 687.026 944.902 706.398 931.627 714.97C910.228 728.694 892.346 738.702 877.635 765.854C867.431 784.681 862.477 810.197 852.125 829.966C842.961 847.407 830.627 866.036 822.8 882.535C805.216 919.595 780.895 963.939 793.08 1008.53C800.411 991.14 811.259 977.317 818.739 961.214C827.506 942.288 834.738 923.757 848.459 908.893C871.245 884.12 898.389 863.856 921.472 839.826C947.329 812.923 964.963 773.831 990.82 744.549C1016.68 715.267 1033.17 687.174 1055.21 651.105C1119.95 544.135 1031.78 630.593 1025.1 636.241C1008.45 650.857 991.513 663.144 974.275 676.274Z" fill="#C48321"/>
<path d="M126.799 904.632C85.6364 843.443 7.17458 674.837 -22.2486 615.184C-43.5977 571.88 -68.3647 536.703 -93.528 495.629C-109.924 468.874 -128.202 455.992 -146.678 432.061C-159.265 415.419 -175.476 401.864 -194.082 392.424C-218.502 379.493 -237.226 367.651 -252.78 339.757C-263.033 321.325 -294.834 277.13 -295.973 259.442C-325.298 316.321 -329.706 359.823 -297.658 393.217C-272.296 419.625 -259.516 489.683 -235.047 517.082C-213.351 541.162 -192.695 529.717 -168.176 561.971C-148.015 588.577 -117.502 604.482 -98.5309 632.178C-73.3677 668.941 -50.3839 708.033 -22.1495 741.18C-9.7165 755.746 1.67629 769.619 13.9112 781.857C30.6041 798.604 51.5075 863.757 59.8787 884.467C68.7948 906.515 112.533 961.065 124.273 979.249C138.043 1000.65 144.582 1067.44 166.575 1093.9C164.148 1043.86 168.11 965.921 126.799 904.632Z" fill="#C48321"/>
</g>
</svg>
