<svg width="60" height="20" viewBox="0 0 60 20" fill="none" xmlns="http://www.w3.org/2000/svg">
<g clip-path="url(#clip0_505_13146)">
<path d="M25.9993 19.7116H21.1389L24.179 0.351074H29.0391L25.9993 19.7116Z" fill="white"/>
<path d="M43.619 0.824255C42.6603 0.432522 41.1397 0 39.2596 0C34.4598 0 31.0798 2.63619 31.059 6.40515C31.0192 9.18588 33.479 10.7304 35.3188 11.6575C37.1992 12.605 37.8384 13.2234 37.8384 14.0679C37.8193 15.3649 36.3189 15.9628 34.9196 15.9628C32.9791 15.9628 31.9393 15.6545 30.3592 14.9329L29.7192 14.6236L29.0391 18.9696C30.179 19.5045 32.2793 19.9792 34.4598 20C39.5597 20 42.8798 17.4046 42.9192 13.3882C42.9386 11.1842 41.6397 9.49549 38.8394 8.11552C37.1394 7.22968 36.0983 6.63236 36.0983 5.72598C36.1183 4.902 36.9789 4.05804 38.8978 4.05804C40.4779 4.0167 41.6389 4.40789 42.5184 4.79934L42.958 5.00493L43.619 0.824255Z" fill="white"/>
<path d="M50.0791 12.8529C50.4793 11.7406 52.0196 7.43594 52.0196 7.43594C51.9994 7.47727 52.4191 6.30317 52.6591 5.58239L52.9987 7.25061C52.9987 7.25061 53.9191 11.8849 54.119 12.8529C53.3594 12.8529 51.0391 12.8529 50.0791 12.8529ZM56.0787 0.351074H52.3191C51.1598 0.351074 50.2789 0.700924 49.7787 1.95743L42.5592 19.7113H47.6591C47.6591 19.7113 48.4987 17.3218 48.6792 16.8071C49.2387 16.8071 54.1998 16.8071 54.9196 16.8071C55.0591 17.4869 55.4995 19.7113 55.4995 19.7113H59.9998L56.0787 0.351074Z" fill="white"/>
<path d="M17.0792 0.351074L12.3192 13.5531L11.7991 10.8756C10.9191 7.78606 8.15915 4.42937 5.07922 2.76033L9.43917 19.6911H14.5789L22.2187 0.351074H17.0792Z" fill="white"/>
<path d="M7.89994 0.351074H0.0800011L0 0.742259C6.10004 2.34888 10.14 6.22159 11.7998 10.8764L10.0999 1.9785C9.81998 0.741986 8.9599 0.391863 7.89994 0.351074Z" fill="white"/>
</g>
<defs>
<clipPath id="clip0_505_13146">
<rect width="60" height="20" fill="white"/>
</clipPath>
</defs>
</svg>
