<svg width="41" height="40" viewBox="0 0 41 40" fill="none" xmlns="http://www.w3.org/2000/svg">
<circle cx="20.5" cy="20" r="19" stroke="#2B2A29" stroke-width="2"/>
<path d="M23.5729 10H17.4375C11.8333 10 10.5 11.3333 10.5 16.9271V23.0625C10.5 28.6666 11.8229 30 17.4271 30H23.5625C29.1667 30 30.5 28.6771 30.5 23.0729V16.9375C30.5 11.3333 29.1771 10 23.5729 10ZM26.6458 24.2708H25.1875C24.6354 24.2708 24.4688 23.8229 23.4792 22.8333C22.6146 22 22.25 21.8958 22.0312 21.8958C21.7292 21.8958 21.6458 21.9791 21.6458 22.3958V23.7083C21.6458 24.0625 21.5312 24.2708 20.6042 24.2708C19.7046 24.2104 18.8322 23.9371 18.0589 23.4735C17.2856 23.0098 16.6335 22.3691 16.1562 21.6041C15.0234 20.194 14.2351 18.5391 13.8542 16.7708C13.8542 16.5521 13.9375 16.3541 14.3542 16.3541H15.8125C16.1875 16.3541 16.3229 16.5208 16.4688 16.9062C17.1771 18.9896 18.3854 20.8021 18.875 20.8021C19.0625 20.8021 19.1458 20.7188 19.1458 20.25V18.1041C19.0833 17.125 18.5625 17.0416 18.5625 16.6875C18.5694 16.5941 18.6124 16.507 18.6824 16.4447C18.7524 16.3825 18.8439 16.35 18.9375 16.3541H21.2292C21.5417 16.3541 21.6458 16.5104 21.6458 16.8854V19.7812C21.6458 20.0938 21.7812 20.1979 21.875 20.1979C22.0625 20.1979 22.2083 20.0938 22.5521 19.75C23.2907 18.8492 23.8943 17.8456 24.3438 16.7708C24.3896 16.6415 24.4766 16.5307 24.5913 16.4555C24.7061 16.3803 24.8423 16.3446 24.9792 16.3541H26.4375C26.875 16.3541 26.9688 16.5729 26.875 16.8854C26.3444 18.0737 25.6878 19.2017 24.9167 20.25C24.7604 20.4896 24.6979 20.6146 24.9167 20.8958C25.0625 21.1146 25.5729 21.5416 25.9167 21.9479C26.4167 22.4466 26.8318 23.0237 27.1458 23.6562C27.2708 24.0625 27.0625 24.2708 26.6458 24.2708Z" fill="#2B2A29"/>
</svg>
