<svg width="1241" height="499" viewBox="0 0 1241 499" fill="none" xmlns="http://www.w3.org/2000/svg">
<path opacity="0.03" d="M0.145902 373.615V302.304L185.824 8.98665H329.791V276.067H386.975V373.615H329.791V490H213.406V373.615H0.145902ZM119.895 276.067H213.406V168.427L217.443 114.608H216.097C209.37 134.342 201.521 150.936 192.551 164.391L119.895 274.721V276.067ZM709.094 479.236C685.324 491.794 656.844 498.073 623.655 498.073C590.466 498.073 561.763 491.794 537.544 479.236C513.773 466.23 495.161 448.066 481.706 424.744C468.251 401.422 458.384 375.185 452.105 346.032C445.826 316.88 442.687 284.364 442.687 248.484C442.687 212.604 445.826 180.313 452.105 151.609C458.384 122.456 468.251 96.4436 481.706 73.5703C495.161 50.2484 513.773 32.3085 537.544 19.7506C561.763 7.19265 590.466 0.913684 623.655 0.913684C656.844 0.913684 685.324 7.19265 709.094 19.7506C733.313 32.3085 752.15 50.2484 765.605 73.5703C779.06 96.4436 788.926 122.456 795.205 151.609C801.484 180.313 804.624 212.604 804.624 248.484C804.624 284.364 801.484 316.88 795.205 346.032C788.926 375.185 779.06 401.422 765.605 424.744C752.15 448.066 733.313 466.23 709.094 479.236ZM563.781 248.484C563.781 343.117 583.739 390.434 623.655 390.434C663.571 390.434 683.53 343.117 683.53 248.484C683.53 155.197 663.571 108.553 623.655 108.553C583.739 108.553 563.781 155.197 563.781 248.484ZM853.561 373.615V302.304L1039.24 8.98665H1183.21V276.067H1240.39V373.615H1183.21V490H1066.82V373.615H853.561ZM973.31 276.067H1066.82V168.427L1070.86 114.608H1069.51C1062.78 134.342 1054.94 150.936 1045.97 164.391L973.31 274.721V276.067Z" fill="#432F0F"/>
</svg>
