<svg width="34" height="16" viewBox="0 0 34 16" fill="none" xmlns="http://www.w3.org/2000/svg">
<path d="M1.7417 7.33325C1.18941 7.33325 0.741699 7.78097 0.741699 8.33325C0.741699 8.88554 1.18941 9.33325 1.7417 9.33325V7.33325ZM33.621 9.04036C34.0115 8.64983 34.0115 8.01667 33.621 7.62615L27.2571 1.26218C26.8665 0.87166 26.2334 0.87166 25.8428 1.26218C25.4523 1.65271 25.4523 2.28587 25.8428 2.6764L31.4997 8.33325L25.8428 13.9901C25.4523 14.3806 25.4523 15.0138 25.8428 15.4043C26.2334 15.7948 26.8665 15.7948 27.2571 15.4043L33.621 9.04036ZM1.7417 9.33325H32.9139V7.33325H1.7417V9.33325Z" fill="white"/>
</svg>
