<svg width="527" height="221" viewBox="0 0 427 300" fill="none" xmlns="http://www.w3.org/2000/svg">
    <path style="transform-origin: 100% 100%; transform-box: fill-box;" class="branch" d="M623.283 220.314C622.838 220.752 622.24 220.997 621.616 220.997C620.993 220.997 620.395 220.752 619.949 220.314C619.816 220.197 615.949 216.248 608.797 209.722C603.38 212.985 587.66 220.431 572.924 208.182C572.815 208.097 572.731 207.983 572.681 207.854C572.631 207.724 572.617 207.583 572.641 207.446C572.662 207.31 572.717 207.182 572.802 207.073C572.886 206.965 572.997 206.88 573.124 206.827C580.217 203.981 587.745 202.385 595.378 202.108C597.176 202.109 598.971 202.255 600.746 202.543C595.745 198.109 589.694 193.022 582.826 187.483C577.258 191.566 559.338 202.359 532.15 196.101C532.012 196.07 531.885 196.003 531.782 195.905C531.68 195.808 531.605 195.685 531.566 195.549C531.526 195.417 531.52 195.277 531.549 195.142C531.578 195.007 531.642 194.882 531.733 194.779C531.933 194.578 546.269 179.484 565.506 179.484C568.382 179.485 571.248 179.834 574.041 180.522C566.389 174.548 557.904 168.189 548.619 161.663C544.502 166.248 530.716 176.071 493.242 164.123C493.099 164.082 492.971 164 492.873 163.887C492.775 163.774 492.713 163.635 492.692 163.487C492.67 163.338 492.69 163.186 492.749 163.047C492.808 162.908 492.903 162.788 493.026 162.701C502.882 156.485 514.26 153.132 525.899 153.012C530.023 153.018 534.134 153.495 538.151 154.434C532.85 150.842 527.388 147.244 521.764 143.641C516.83 140.529 511.657 137.377 506.245 134.187C502.987 137.755 499.112 140.703 494.809 142.888C486.758 147.105 472.955 151.021 453.135 145.85C452.992 145.813 452.861 145.738 452.758 145.632C452.656 145.525 452.584 145.392 452.551 145.248C452.516 145.105 452.523 144.955 452.57 144.815C452.617 144.676 452.703 144.553 452.818 144.461C465.447 135.25 480.649 130.272 496.26 130.238C497.393 130.238 498.527 130.238 499.694 130.321C488.958 124.18 477.389 118.022 465.104 112.082C446.774 127.393 423.191 134.874 399.425 132.915C399.279 132.901 399.139 132.848 399.022 132.76C398.904 132.672 398.813 132.553 398.758 132.417C398.703 132.28 398.686 132.131 398.71 131.986C398.733 131.841 398.796 131.705 398.891 131.593C399.141 131.309 420.412 107.413 451.935 107.413C453.085 107.413 454.268 107.413 455.452 107.513C441.849 101.255 427.43 95.3147 412.344 89.9934C385.556 126.807 347.332 121.536 346.898 121.469C346.763 121.448 346.635 121.393 346.527 121.308C346.419 121.223 346.334 121.111 346.282 120.984C346.231 120.855 346.213 120.715 346.231 120.578C346.248 120.44 346.3 120.309 346.382 120.197C363.551 97.6909 392.54 90.0771 405.909 87.7846C393.107 83.4841 379.855 79.6521 366.219 76.456C358.701 85.057 324.694 120.649 280.369 116.617C280.224 116.608 280.084 116.557 279.965 116.471C279.847 116.385 279.756 116.267 279.702 116.131C279.648 115.996 279.63 115.849 279.65 115.705C279.671 115.561 279.729 115.425 279.819 115.311C280.169 114.893 310.892 77.711 351.499 73.2766C337.524 70.5249 323.404 68.5751 309.208 67.4366C274.435 113.236 228.376 115.278 227.826 115.295C227.677 115.302 227.53 115.267 227.399 115.195C227.269 115.123 227.161 115.015 227.089 114.885C227.016 114.754 226.981 114.606 226.987 114.457C226.994 114.308 227.042 114.163 227.126 114.04C243.18 90.2028 267.577 73.2985 295.472 66.6836C291.488 66.5163 287.471 66.3991 283.437 66.3824H281.77C269.898 66.3747 258.035 67.0003 246.23 68.2566C242.629 77.6106 226.509 114.123 192.269 120.967C192.126 121 191.976 120.992 191.837 120.944C191.697 120.896 191.575 120.809 191.482 120.693C191.39 120.578 191.332 120.439 191.315 120.292C191.298 120.145 191.323 119.996 191.386 119.863C191.553 119.461 207.106 84.2706 233.727 69.863C220.898 71.7358 208.19 74.3675 195.67 77.7445C197.337 83.8188 198.037 100.87 167.898 128.447C167.78 128.554 167.633 128.623 167.475 128.644C167.317 128.665 167.156 128.637 167.015 128.564C166.869 128.499 166.748 128.39 166.667 128.252C166.587 128.114 166.551 127.954 166.565 127.795C167.265 120.329 168.752 112.958 170.999 105.807C174.449 94.9131 179.334 86.4125 185.485 80.7063C178.517 82.8315 171.582 85.2244 164.714 87.8181C169.282 125.82 134.142 146.988 133.775 147.189C133.66 147.25 133.531 147.282 133.4 147.282C133.269 147.282 133.141 147.25 133.025 147.189C132.909 147.132 132.809 147.047 132.733 146.942C132.657 146.837 132.609 146.715 132.592 146.586C129.058 121.955 147.744 100.151 157.596 90.5958C143.562 96.2672 129.899 102.823 116.689 110.224C119.495 116.547 121.241 123.293 121.856 130.187C123.04 143.34 120.606 163.437 102.236 184.438C102.143 184.55 102.019 184.633 101.881 184.677C101.742 184.722 101.593 184.726 101.452 184.689C101.31 184.657 101.179 184.585 101.076 184.481C100.972 184.377 100.901 184.246 100.869 184.103C100.752 183.668 91.3006 144.779 106.954 115.897C101.108 119.4 95.3013 123.081 89.5336 126.941C87.8499 179.334 52.1433 191.382 51.7765 191.499C51.6376 191.542 51.4896 191.546 51.3487 191.51C51.2077 191.475 51.079 191.402 50.9764 191.298C50.8685 191.199 50.7921 191.07 50.7565 190.927C50.721 190.784 50.7278 190.634 50.7763 190.495C56.8858 169.993 66.6576 150.778 79.6151 133.785C68.2796 141.884 57.1164 150.708 46.1255 160.258C36.9737 201.255 1.15038 201.188 0.783646 201.238C0.663428 201.236 0.545267 201.206 0.438312 201.151C0.331356 201.096 0.238476 201.017 0.166864 200.92C0.0941696 200.827 0.0430147 200.718 0.0170744 200.602C-0.00886583 200.487 -0.00894742 200.367 0.0168356 200.251C9.06853 161.429 34.7233 156.844 43.2416 156.409C48.1092 152.192 53.0045 148.12 57.9277 144.193C25.905 157.028 7.35154 140.679 7.13483 140.495C7.03582 140.406 6.96093 140.294 6.91719 140.168C6.87345 140.042 6.8623 139.907 6.88479 139.776C6.90213 139.645 6.95263 139.521 7.03144 139.416C7.11025 139.31 7.21473 139.227 7.33487 139.173C29.7891 128.648 44.8419 125.385 54.8938 125.385C59.0572 125.267 63.2001 126.013 67.0627 127.577C69.5416 128.612 71.708 130.279 73.3472 132.413C83.6714 124.883 94.1289 117.95 104.72 111.613C95.2513 113.604 83.5491 111.161 70.2466 104.284C61.4548 99.6441 53.179 94.0796 45.5587 87.6842C45.4405 87.5877 45.3528 87.4588 45.3065 87.3131C45.2601 87.1674 45.2571 87.0113 45.2978 86.8639C45.3385 86.7165 45.4211 86.5842 45.5356 86.4832C45.65 86.3822 45.7913 86.3169 45.9421 86.2953C51.1515 85.3482 56.4343 84.8666 61.7284 84.8562C94.0011 84.8562 112.138 103.464 114.438 105.991C127.595 98.6178 141.196 92.0735 155.163 86.3957C113.205 80.4386 100.236 55.9741 100.102 55.7231C100.035 55.6022 100 55.4654 100.002 55.3267C100.004 55.1881 100.042 55.0524 100.114 54.9334C100.185 54.8145 100.286 54.7165 100.407 54.6495C100.528 54.5825 100.664 54.5488 100.802 54.5518H101.686C133.775 54.5518 155.796 76.3054 162.331 83.6012C171.566 80.0872 180.884 76.9915 190.286 74.3141C176.05 65.6126 168.265 55.7901 164.198 48.8289C161.452 44.4256 159.537 39.5533 158.546 34.4548C158.525 34.326 158.537 34.1939 158.581 34.0709C158.625 33.948 158.699 33.8382 158.797 33.752C158.943 33.6202 159.133 33.5485 159.33 33.5512H159.513C193.853 41.9179 195.77 64.776 195.303 72.8917C209.638 69.0561 224.212 66.1882 238.928 64.3074C207.389 52.1756 196.237 16.667 196.12 16.2822C196.081 16.1528 196.076 16.0156 196.105 15.8837C196.134 15.7518 196.197 15.6297 196.287 15.5291C196.362 15.4422 196.453 15.372 196.557 15.323C196.66 15.274 196.773 15.2473 196.887 15.2447H197.004C240.679 21.4528 246.413 54.033 247.146 63.3201C258.717 62.134 270.339 61.5364 281.97 61.5297H283.637C287.348 61.5297 291.055 61.6133 294.755 61.7807C256.131 46.5029 251.281 1.33907 251.23 0.820329C251.216 0.67897 251.24 0.536342 251.298 0.406995C251.357 0.277648 251.448 0.166207 251.564 0.0840489C251.704 -0.00263789 251.866 -0.0489476 252.031 -0.0498226C252.14 -0.0749269 252.254 -0.0749269 252.364 -0.0498226C291.055 18.5914 306.574 53.6147 310.008 62.5839C324.604 63.8012 339.119 65.8516 353.483 68.7251C323.861 49.7994 314.826 3.7487 314.726 3.22996C314.694 3.08539 314.704 2.93489 314.755 2.79577C314.805 2.65665 314.893 2.53455 315.009 2.44349C315.15 2.32881 315.328 2.26935 315.509 2.27614C315.613 2.25243 315.722 2.25243 315.826 2.27614C356.667 20.0639 365.835 61.7807 367.502 71.7037C381.255 74.95 394.607 78.8154 407.51 83.1494C393.074 64.7425 399.942 28.2299 400.275 26.5398C400.303 26.3941 400.371 26.2591 400.471 26.1498C400.571 26.0405 400.7 25.9612 400.842 25.9207H401.058C401.168 25.9193 401.276 25.941 401.377 25.9842C401.477 26.0274 401.568 26.0913 401.642 26.1717C430.414 57.7813 419.879 79.2338 415.245 85.8435C429.581 90.964 443.316 96.6032 456.319 102.577C450.901 95.8836 447.134 86.128 445.267 73.879C443.992 65.1557 443.64 56.3214 444.217 47.5237C444.231 47.3791 444.283 47.241 444.368 47.1234C444.453 47.0058 444.568 46.9129 444.7 46.8543C444.805 46.8369 444.912 46.8369 445.017 46.8543C445.194 46.8577 445.365 46.9227 445.5 47.0384C472.922 69.0263 469.088 99.5483 467.421 107.882C478.756 113.387 489.475 119.06 499.494 124.732C487.091 105.79 496.76 78.2967 496.876 77.9787C496.926 77.8462 497.009 77.7287 497.117 77.6378C497.225 77.5469 497.355 77.4857 497.493 77.46H497.627C497.746 77.4587 497.863 77.4852 497.97 77.5375C498.077 77.5898 498.171 77.6664 498.243 77.7612C514.83 98.8455 510.346 122.641 508.429 129.886C513.946 133.133 519.231 136.362 524.248 139.525C528.382 142.135 532.416 144.762 536.334 147.373C531.691 141.155 528.883 133.752 528.229 126.01C527.574 118.267 529.1 110.495 532.633 103.581C532.693 103.479 532.775 103.391 532.873 103.325C532.971 103.258 533.083 103.214 533.2 103.196H533.317C533.51 103.196 533.698 103.261 533.85 103.38C556.438 123.059 552.487 149.431 550.703 157.179C560.622 164.157 569.673 170.934 577.775 177.259C575.258 172.44 574.16 167.002 574.608 161.58C575.808 148.728 585.693 140.495 586.11 140.161C586.257 140.044 586.439 139.979 586.627 139.977H586.793C586.913 140 587.025 140.052 587.121 140.127C587.216 140.203 587.293 140.3 587.343 140.412C596.178 159.07 592.494 179.752 587.843 185.291C593.911 190.311 599.279 194.796 603.863 198.812C601.113 187.366 610.448 175.619 610.531 175.385C610.603 175.29 610.697 175.213 610.804 175.161C610.911 175.109 611.029 175.082 611.148 175.084C611.278 175.092 611.405 175.133 611.515 175.203C611.626 175.274 611.717 175.37 611.781 175.485C614.55 180.103 616.033 185.381 616.077 190.77C616.121 196.16 614.724 201.462 612.031 206.124C619.216 212.667 623.1 216.616 623.233 216.75C623.482 216.974 623.681 217.247 623.819 217.551C623.957 217.856 624.031 218.186 624.035 218.521C624.04 218.856 623.976 219.188 623.846 219.497C623.717 219.805 623.525 220.084 623.283 220.314V220.314Z" fill="#EC6708"/>


    <defs>
        <style>
            .branch {
                animation: rotate 5s ease infinite;
            }
            @keyframes rotate {
                0% {
                    transform: rotateX(0) translateY(100px);
                }
                30% {
                    transform: rotateX(30deg) translateY(100px);
                }
                48% {
                    transform: rotateX(-30deg) translateY(100px);
                }
                64% {
                    transform: rotateX(6deg) translateY(100px);
                }
                85% {
                    transform: rotateX(-10deg) translateY(100px);
                }
                100% {
                    transform: rotateX(0) translateY(100px);
                }
            }
        </style>
    </defs>
</svg>
