<svg width="130" height="127" viewBox="0 0 130 127" fill="none" xmlns="http://www.w3.org/2000/svg">
    <g style="transform-origin: 50% 50%; transform-box: fill-box;">
        <path d="M52.1316 112.234L48.6641 122.935L47.6134 122.596L49.1178 117.953L47.321 117.374L42.9234 121.083L41.7204 120.695L46.5709 116.678L46.5808 116.647L44.9747 109.926L46.2081 110.324L47.6268 116.43L49.4236 117.01L51.0809 111.895L52.1316 112.234Z" fill="black"/>
        <path d="M42.2531 106.278C42.1301 105.912 41.9238 105.639 41.6343 105.458C41.0914 105.119 40.4247 105.219 39.6343 105.756L38.6151 106.478L37.2186 115L36.2007 114.364L37.3251 108.144L37.5177 107.264L37.4906 107.248C37.2686 107.461 37.0415 107.652 36.8093 107.822L31.7217 111.568L30.7309 110.95L39.2651 104.809C39.7237 104.479 40.2043 104.295 40.7068 104.257C41.2003 104.213 41.6687 104.329 42.1121 104.606C42.3202 104.736 42.5056 104.902 42.6684 105.104C42.8278 105.292 42.9329 105.445 42.9837 105.565L43.065 105.767L42.2531 106.278Z" fill="black"/>
        <path d="M31.1284 100.872L25.3184 106.441L20.6462 101.588L26.4562 96.0194L27.2108 96.8031L22.0939 101.708L25.2568 104.993L30.3738 100.088L31.1284 100.872Z" fill="black"/>
        <path d="M22.9747 91.2641L15.949 95.1898L15.4322 94.2689L20.0414 91.6935C20.6839 91.3345 21.0409 91.1533 21.1125 91.15L21.0968 91.1221C21.0108 91.1213 20.5258 91.0746 19.642 90.9819L13.0983 90.1111L12.5893 89.2042L19.6149 85.2786L20.1396 86.2134L15.5164 88.7967C15.3954 88.8643 15.2557 88.9424 15.0974 89.0308C14.9339 89.11 14.7936 89.1761 14.6767 89.2292C14.5504 89.2876 14.4826 89.3194 14.4733 89.3246L14.4889 89.3525C14.5076 89.3421 14.5962 89.3475 14.755 89.3688C14.9085 89.3807 15.1056 89.405 15.3463 89.4416C15.5818 89.4689 15.769 89.4864 15.908 89.4943L22.4656 90.3572L22.9747 91.2641Z" fill="black"/>
        <path d="M17.0054 77.9252L10.1781 79.8298L10.9682 82.6492L10.0435 82.9072L8.16534 76.2054L9.09003 75.9474L9.88448 78.7822L16.7118 76.8776L17.0054 77.9252Z" fill="black"/>
        <path d="M15.2835 69.179L7.24621 69.5945L7.18976 68.5079L10.2577 68.3494L10.1672 66.6077C10.1251 65.7981 10.2873 65.1168 10.6538 64.5639C11.0202 64.0109 11.6455 63.7115 12.5297 63.6658C13.286 63.6267 13.9003 63.8353 14.3726 64.2915C14.8343 64.7483 15.0895 65.4454 15.1382 66.3828L15.2835 69.179ZM14.3642 68.1371L14.2803 66.5233C14.2172 65.3089 13.6477 64.7295 12.5718 64.7851C12.0605 64.8116 11.6688 64.9814 11.3967 65.2945C11.1246 65.6076 11.0043 66.0678 11.0358 66.675L11.1205 68.3048L14.3642 68.1371Z" fill="black"/>
        <path d="M12.4479 49.7165C11.0795 49.2351 10.0559 48.6262 9.37708 47.8899C8.69832 47.1536 8.29874 46.0914 8.17835 44.7035L7.85691 41.4356L8.85051 41.3611L9.15949 44.7603C9.2569 45.7331 9.51656 46.5029 9.93847 47.0697C10.3639 47.6265 10.9854 48.0769 11.8027 48.421L11.8134 48.3908C10.9565 47.4222 10.7573 46.2892 11.2158 44.9919C11.55 44.0465 12.1388 43.3886 12.9824 43.0183C13.8196 42.6343 14.7764 42.6318 15.8531 43.0105C16.8995 43.3787 17.6411 44.0014 18.0777 44.8787C18.5143 45.756 18.5531 46.7025 18.1942 47.7183C17.7712 48.9151 17.0473 49.6668 16.0226 49.9734C14.9979 50.28 13.8063 50.1944 12.4479 49.7165ZM13.748 48.9188C14.5631 49.2055 15.2938 49.2025 15.9403 48.9098C16.5868 48.6171 17.0327 48.1238 17.2779 47.4299C17.5232 46.7359 17.4911 46.0744 17.1816 45.4454C16.8622 44.8129 16.2999 44.355 15.495 44.0718C14.6799 43.7851 13.9542 43.7899 13.3178 44.0861C12.6749 44.3688 12.2361 44.842 12.0015 45.5057C11.742 46.2399 11.7821 46.9268 12.1217 47.5664C12.4613 48.206 13.0034 48.6568 13.748 48.9188Z" fill="black"/>
        <path d="M21.8145 39.3189L15.1396 34.8226L15.7315 33.948L20.1106 36.8978C20.721 37.309 21.0438 37.5458 21.079 37.608L21.0969 37.5815C21.0589 37.5045 20.8826 37.0513 20.5679 36.222L18.4036 29.9992L18.9865 29.1378L25.6614 33.6341L25.0606 34.5219L20.6682 31.5632C20.5532 31.4857 20.4205 31.3963 20.2701 31.295C20.1256 31.1848 20.0033 31.0896 19.9032 31.0093C19.7941 30.923 19.7352 30.8768 19.7263 30.8709L19.7084 30.8974C19.7261 30.9093 19.7611 30.9908 19.8135 31.1418C19.8718 31.284 19.9388 31.4705 20.0143 31.7015C20.0958 31.9236 20.1643 32.0983 20.2198 32.2257L22.3974 38.4575L21.8145 39.3189Z" fill="black"/>
        <path d="M28.8788 30.0592L28.2266 29.3331C28.6484 28.8129 28.7216 28.1681 28.4462 27.3984C28.1637 26.6209 27.52 25.6726 26.5151 24.5535L24.8902 22.7441L28.5642 19.4598L33.9415 25.4477L33.1303 26.1728L28.3838 20.8872L26.3082 22.7427L27.3024 23.8498C28.571 25.2624 29.3293 26.466 29.5772 27.4605C29.8259 28.4399 29.5931 29.3062 28.8788 30.0592Z" fill="black"/>
        <path d="M36.436 18.826C35.8295 17.6988 35.678 16.6183 35.9817 15.5844C36.2948 14.5454 36.9496 13.759 37.9463 13.2251C38.8866 12.7215 39.7846 12.6458 40.6404 12.9981C41.4912 13.341 42.1667 13.9775 42.6671 14.9074C42.7278 15.0201 42.8043 15.1848 42.8967 15.4015L37.4526 18.3177C37.9414 19.1812 38.5831 19.7209 39.3775 19.9366C40.172 20.1524 40.95 20.0563 41.7116 19.6484C42.5296 19.2102 43.0973 18.5431 43.4146 17.6471L44.2461 18.1455C44.0787 18.6224 43.8033 19.0785 43.4198 19.5138C43.0457 19.9441 42.6236 20.2852 42.1535 20.537C41.091 21.1062 40.0154 21.2346 38.9268 20.9223C37.8475 20.6049 37.0173 19.9062 36.436 18.826ZM37.0855 17.5342L41.5423 15.1469C41.135 14.4575 40.6422 14.0257 40.0639 13.8514C39.4806 13.6678 38.9069 13.7271 38.3427 14.0293C37.7315 14.3566 37.3039 14.8338 37.0598 15.4606C36.8157 16.0875 36.8243 16.7787 37.0855 17.5342Z" fill="black"/>
        <path d="M51.4856 16.7226L49.6365 9.88L46.809 10.6406L46.5586 9.71383L53.2797 7.90588L53.5301 8.83264L50.6872 9.59738L52.5362 16.44L51.4856 16.7226Z" fill="black"/>
        <path d="M75.6027 16.0859L78.7214 5.27886L79.7825 5.58367L78.4294 10.2723L80.244 10.7936L84.5189 6.94429L85.7338 7.29328L81.0162 11.4649L81.0073 11.4956L82.8304 18.1621L81.5848 17.8043L79.969 11.7467L78.1544 11.2254L76.6638 16.3907L75.6027 16.0859Z" fill="black"/>
        <path d="M85.6684 21.7204C85.8032 22.0822 86.0183 22.3488 86.3135 22.5201C86.8671 22.8412 87.5302 22.7203 88.3027 22.1573L89.298 21.4029L90.4177 12.8407L91.4557 13.4429L90.5333 19.6964L90.3693 20.5816L90.397 20.5977C90.6119 20.3771 90.8327 20.1784 91.0592 20.0015L96.0227 16.0925L97.033 16.6786L88.7024 23.0921C88.2547 23.4366 87.7803 23.6362 87.2793 23.6908C86.7876 23.7508 86.3157 23.6497 85.8636 23.3874C85.6514 23.2643 85.4606 23.1043 85.2914 22.9075C85.126 22.7252 85.016 22.575 84.9613 22.457L84.8735 22.2581L85.6684 21.7204Z" fill="black"/>
        <path d="M96.9628 26.7647L102.589 21.0105L107.416 25.7089L101.79 31.4631L101.01 30.7042L105.966 25.6364L102.698 22.4558L97.7424 27.5236L96.9628 26.7647Z" fill="black"/>
        <path d="M105.424 36.1037L112.319 31.953L112.865 32.8566L108.342 35.5797C107.711 35.9593 107.36 36.1519 107.289 36.1575L107.305 36.1849C107.391 36.1829 107.878 36.2139 108.764 36.278L115.333 36.9366L115.871 37.8265L108.976 41.9772L108.421 41.0599L112.958 38.3285C113.077 38.257 113.214 38.1745 113.37 38.081C113.53 37.9966 113.669 37.9259 113.784 37.869C113.908 37.8066 113.975 37.7727 113.984 37.7672L113.967 37.7398C113.949 37.7508 113.86 37.7483 113.701 37.7321C113.547 37.7251 113.349 37.7072 113.108 37.6785C112.871 37.6588 112.684 37.6473 112.544 37.644L105.962 36.9936L105.424 36.1037Z" fill="black"/>
        <path d="M111.823 49.2421L118.585 47.1179L117.704 44.3256L118.62 44.0379L120.715 50.6753L119.799 50.963L118.913 48.1554L112.151 50.2796L111.823 49.2421Z" fill="black"/>
        <path d="M113.828 57.9284L121.848 57.2535L121.94 58.3376L118.878 58.5953L119.025 60.3331C119.094 61.1408 118.954 61.827 118.605 62.3915C118.257 62.9561 117.642 63.2755 116.759 63.3497C116.005 63.4132 115.384 63.2246 114.897 62.7839C114.421 62.3422 114.143 61.6538 114.064 60.7184L113.828 57.9284ZM114.781 58.9401L114.917 60.5503C115.019 61.762 115.607 62.3227 116.681 62.2323C117.191 62.1894 117.577 62.0071 117.839 61.6853C118.101 61.3635 118.206 60.8997 118.155 60.2939L118.017 58.6677L114.781 58.9401Z" fill="black"/>
        <path d="M117.294 77.2894C118.677 77.7264 119.72 78.3019 120.422 79.0159C121.124 79.73 121.558 80.7787 121.724 82.1621L122.151 85.418L121.16 85.5245L120.741 82.137C120.612 81.1678 120.328 80.4068 119.888 79.8539C119.444 79.3111 118.809 78.881 117.981 78.5635L117.971 78.594C118.859 79.5344 119.095 80.6604 118.678 81.972C118.375 82.9277 117.808 83.6042 116.977 84.0017C116.153 84.4125 115.196 84.446 114.108 84.1022C113.05 83.768 112.289 83.1696 111.824 82.3068C111.359 81.4441 111.29 80.4993 111.616 79.4724C112 78.2625 112.699 77.4878 113.713 77.1482C114.727 76.8086 115.921 76.8557 117.294 77.2894ZM116.02 78.1288C115.196 77.8685 114.466 77.8951 113.83 78.2086C113.193 78.5221 112.763 79.0296 112.541 79.7311C112.318 80.4326 112.372 81.0927 112.701 81.7114C113.041 82.3333 113.618 82.7728 114.431 83.0298C115.255 83.2901 115.981 83.2619 116.607 82.9452C117.24 82.6419 117.664 82.1548 117.877 81.4837C118.112 80.7416 118.05 80.0563 117.69 79.428C117.329 78.7996 116.773 78.3666 116.02 78.1288Z" fill="black"/>
        <path d="M108.271 87.985L115.087 92.2631L114.524 93.1564L110.052 90.3497C109.429 89.9585 109.098 89.7323 109.061 89.6712L109.044 89.6983C109.085 89.7741 109.275 90.2213 109.617 91.04L111.981 97.1897L111.427 98.0695L104.61 93.7914L105.182 92.8846L109.667 95.6998C109.785 95.7735 109.92 95.8585 110.074 95.9549C110.222 96.0603 110.347 96.1516 110.45 96.2286C110.562 96.3114 110.622 96.3556 110.631 96.3613L110.648 96.3342C110.63 96.3228 110.593 96.2426 110.535 96.0933C110.472 95.9531 110.399 95.7688 110.316 95.5404C110.228 95.321 110.154 95.1486 110.094 95.023L107.716 88.8648L108.271 87.985Z" fill="black"/>
        <path d="M101.51 97.4678L102.185 98.1725C101.78 98.706 101.728 99.3529 102.028 100.113C102.336 100.881 103.01 101.808 104.05 102.894L105.733 104.65L102.167 108.051L96.599 102.241L97.3863 101.49L102.301 106.619L104.316 104.697L103.286 103.623C101.973 102.252 101.176 101.074 100.896 100.088C100.616 99.1169 100.82 98.2436 101.51 97.4678Z" fill="black"/>
        <path d="M94.3212 108.939C94.9639 110.046 95.1503 111.121 94.8802 112.164C94.601 113.212 93.9719 114.019 92.993 114.585C92.0695 115.119 91.1743 115.224 90.3075 114.899C89.4461 114.584 88.7503 113.97 88.22 113.057C88.1557 112.946 88.0739 112.784 87.9745 112.57L93.3216 109.479C92.805 108.632 92.1462 108.114 91.3451 107.924C90.5441 107.734 89.7695 107.855 89.0215 108.287C88.2181 108.752 87.6723 109.437 87.3842 110.343L86.5369 109.871C86.6888 109.389 86.9493 108.924 87.3185 108.477C87.6785 108.035 88.0893 107.68 88.5511 107.413C89.5946 106.81 90.6655 106.647 91.7637 106.924C92.8527 107.206 93.7052 107.878 94.3212 108.939ZM93.7139 110.251L89.3365 112.781C89.7659 113.457 90.2725 113.872 90.8561 114.028C91.4451 114.192 92.0167 114.115 92.5708 113.794C93.171 113.447 93.583 112.957 93.8067 112.322C94.0303 111.688 93.9994 110.997 93.7139 110.251Z" fill="black"/>
        <path d="M79.347 111.527L81.417 118.306L84.2184 117.455L84.4988 118.373L77.8396 120.397L77.5592 119.479L80.376 118.623L78.306 111.844L79.347 111.527Z" fill="black"/>
        <animateTransform
            attributeName="transform"
            attributeType="XML"
            type="rotate"
            from="0"
            to="-360"
            dur="10s"
            repeatCount="indefinite" />
    </g>
    <ellipse cx="64.6115" cy="63.3333" rx="39.6737" ry="39.5833" fill="#2B2A29"/>
    <path d="M48.7417 62.3333C48.1894 62.3333 47.7417 62.781 47.7417 63.3333C47.7417 63.8855 48.1894 64.3333 48.7417 64.3333V62.3333ZM80.621 64.0404C81.0115 63.6498 81.0115 63.0167 80.621 62.6261L74.2571 56.2622C73.8665 55.8717 73.2334 55.8717 72.8428 56.2622C72.4523 56.6527 72.4523 57.2859 72.8428 57.6764L78.4997 63.3333L72.8428 68.9901C72.4523 69.3806 72.4523 70.0138 72.8428 70.4043C73.2334 70.7948 73.8665 70.7948 74.2571 70.4043L80.621 64.0404ZM48.7417 64.3333H79.9139V62.3333H48.7417V64.3333Z" fill="white"/>
</svg>
