<svg width="80" height="27" viewBox="0 0 80 27" fill="none" xmlns="http://www.w3.org/2000/svg">
<g clip-path="url(#clip0_505_13163)">
<path d="M6.43795 19.9868H8.6397C9.19866 19.9868 9.68512 20.1863 10.0746 20.5786C10.4801 20.9555 10.6899 21.4302 10.6899 21.9793V27.0004H8.00157V22.2184H2.68831V27.0004H0V15.0454H2.68831V20.5743L8.3809 15.0454H11.9149L6.43795 19.9868Z" fill="white"/>
<path fill-rule="evenodd" clip-rule="evenodd" d="M21.2766 22.2184H18.7234V20.3967H16.1703V27.0004H13.6171V18.2334H16.1703V18.8084L16.7843 18.2334H19.149C19.7321 18.2334 20.2381 18.4351 20.6414 18.8282C21.0613 19.206 21.2766 19.6798 21.2766 20.2259V22.2184Z" fill="white"/>
<path fill-rule="evenodd" clip-rule="evenodd" d="M23.2742 26.4351C23.6684 26.8092 24.1479 27.0004 24.6923 27.0004H28.2664L29.0904 26.3023V27.0004H31.4894V20.2259C31.4894 19.6798 31.287 19.206 30.8926 18.8283C30.5136 18.4351 30.0381 18.2334 29.4902 18.2334H24.2982L22.1277 20.3967H29.0904V21.4214H24.6923C24.1417 21.4214 23.66 21.6248 23.2672 22.0163C22.8855 22.3968 22.6931 22.871 22.6931 23.4139V25.0079C22.6931 25.5505 22.8849 26.0284 23.2604 26.4213L23.2671 26.4284L23.2742 26.4351ZM25.0921 23.5619V24.8371H29.0904V22.5467L28.0546 23.5619H25.0921Z" fill="white"/>
<path fill-rule="evenodd" clip-rule="evenodd" d="M41.7022 13.4512L39.4115 15.6145H35.6423V18.6283L36.0641 18.2332H41.465L39.1743 20.3965H35.6423V27.0002H33.1915V15.4437C33.1915 14.8944 33.394 14.4181 33.7885 14.0393C34.1941 13.6499 34.687 13.4512 35.247 13.4512H41.7022Z" fill="white"/>
<path fill-rule="evenodd" clip-rule="evenodd" d="M49.3617 27.0004H45.7382C45.1927 27.0004 44.7113 26.8191 44.3145 26.4622L44.3074 26.4558L44.3007 26.4491C43.9224 26.074 43.728 25.6165 43.728 25.096V20.6886H40.8511L43.0405 18.6209H43.728V17.3187L46.1352 15.0454V18.6209H49.3617V20.6886H46.1352V24.9328H49.3617V27.0004Z" fill="white"/>
<path d="M57.8724 20.3967H53.617V27.0004H51.0638V18.2334H53.617V18.8084L54.231 18.2334H58.2979C58.881 18.2334 59.387 18.4351 59.7903 18.8282C60.2102 19.206 60.4255 19.6798 60.4255 20.2259V27.0004H57.8724V20.3967Z" fill="white"/>
<path fill-rule="evenodd" clip-rule="evenodd" d="M61.895 26.4351C62.3145 26.8092 62.8249 27.0004 63.4043 27.0004H70.6383V24.8371H63.8298V23.8124H68.6869L70.6383 21.985V20.2259C70.6383 19.6798 70.4229 19.206 70.0031 18.8282C69.5997 18.4351 69.0938 18.2334 68.5107 18.2334H63.4043C62.8183 18.2334 62.3056 18.4368 61.8876 18.8283C61.4813 19.2088 61.2766 19.683 61.2766 20.2259V25.0079C61.2766 25.5505 61.4808 26.0284 61.8803 26.4213L61.8875 26.4284L61.895 26.4351ZM68.0851 21.6491V20.3967H63.8298V22.6796L64.9301 21.6491H68.0851Z" fill="white"/>
<path fill-rule="evenodd" clip-rule="evenodd" d="M80 27.0004H76.3765C75.831 27.0004 75.3496 26.8191 74.9528 26.4622L74.9457 26.4558L74.939 26.4491C74.5607 26.074 74.3663 25.6165 74.3663 25.096V20.6886H71.4894L73.6788 18.6209H74.3663V17.3187L76.7735 15.0454V18.6209H80V20.6886H76.7735V24.9328H80V27.0004Z" fill="white"/>
</g>
<path d="M6.35733 0.681323V1.63105C6.07288 1.35576 5.76355 1.14242 5.42933 0.991015C5.02399 0.812082 4.6151 0.722615 4.20266 0.722615C3.38488 0.722615 2.70221 1.00134 2.15466 1.55878C1.61421 2.10935 1.34399 2.78723 1.34399 3.59243C1.34399 4.45957 1.6391 5.14433 2.22933 5.64672C2.82666 6.14911 3.48799 6.40031 4.21333 6.40031C4.66844 6.40031 5.10933 6.29363 5.53599 6.08029C5.83466 5.93577 6.10844 5.74307 6.35733 5.5022V6.45192C5.71021 6.89925 4.99555 7.12292 4.21333 7.12292C3.16088 7.12292 2.28266 6.78226 1.57866 6.10094C0.88177 5.41961 0.533325 4.58 0.533325 3.58211C0.533325 2.55668 0.885325 1.70331 1.58933 1.02198C2.30044 0.340661 3.18933 0 4.25599 0C5.03821 0 5.73866 0.227108 6.35733 0.681323Z" fill="white"/>
<path d="M7.94116 2.71497H11.0558V6.31772H11.7172V8.13458H11.0132V6.99904H7.64249V8.13458H6.93849V6.31772C7.30827 6.31084 7.58205 6.12502 7.75983 5.76028C7.88071 5.5194 7.94116 5.14089 7.94116 4.62474V2.71497ZM10.2878 6.31772V3.39629H8.70916V5.00669C8.70916 5.5779 8.53138 6.01491 8.17583 6.31772H10.2878Z" fill="white"/>
<path d="M15.8127 5.56414L16.4527 5.9048C16.3034 6.18008 16.1221 6.41063 15.9087 6.59644C15.5034 6.94743 15.0127 7.12292 14.4367 7.12292C13.8394 7.12292 13.3239 6.93711 12.8901 6.56547C12.4634 6.18696 12.2501 5.62608 12.2501 4.88281C12.2501 4.22902 12.4421 3.68878 12.8261 3.26209C13.2172 2.82852 13.7399 2.61174 14.3941 2.61174C15.1336 2.61174 15.6919 2.87326 16.0687 3.39629C16.3674 3.80921 16.5061 4.34601 16.4847 5.00669H13.0394C13.0465 5.44026 13.1852 5.79124 13.4554 6.05964C13.7256 6.32804 14.0563 6.46224 14.4474 6.46224C14.7959 6.46224 15.0981 6.35901 15.3541 6.15255C15.5532 5.98738 15.7061 5.79124 15.8127 5.56414ZM13.0927 4.38731H15.6954C15.6314 4.05009 15.4785 3.78169 15.2367 3.58211C15.0021 3.37564 14.7212 3.27241 14.3941 3.27241C14.0741 3.27241 13.7896 3.37909 13.5407 3.59243C13.299 3.79889 13.1496 4.06385 13.0927 4.38731Z" fill="white"/>
<path d="M21.0122 2.71497V6.99904H20.2442V3.39629H18.6655V5.32671C18.6655 5.88415 18.5517 6.29708 18.3242 6.56547C18.0682 6.86829 17.7126 7.01969 17.2575 7.01969C17.2006 7.01969 17.1224 7.01281 17.0228 6.99904V6.31772C17.0939 6.33149 17.1508 6.33837 17.1935 6.33837C17.4424 6.33837 17.6273 6.24546 17.7482 6.05964C17.8477 5.90824 17.8975 5.66393 17.8975 5.32671V2.71497H21.0122Z" fill="white"/>
<path d="M25.8569 3.32403V2.71497H26.6249V6.99904H25.8569V6.40031C25.4729 6.88205 24.968 7.12292 24.3422 7.12292C23.7449 7.12292 23.2365 6.92334 22.8169 6.52418C22.3974 6.12502 22.1876 5.56758 22.1876 4.85184C22.1876 4.14988 22.3938 3.60275 22.8062 3.21048C23.2258 2.81132 23.7378 2.61174 24.3422 2.61174C24.9822 2.61174 25.4871 2.84917 25.8569 3.32403ZM24.4276 3.27241C24.0222 3.27241 23.6774 3.4135 23.3929 3.69566C23.1156 3.97094 22.9769 4.35634 22.9769 4.85184C22.9769 5.32671 23.1049 5.71554 23.3609 6.01835C23.624 6.31428 23.9796 6.46224 24.4276 6.46224C24.8756 6.46224 25.2311 6.3074 25.4942 5.99771C25.7645 5.68801 25.8996 5.3095 25.8996 4.86217C25.8996 4.3529 25.7502 3.96062 25.4516 3.68534C25.1529 3.41006 24.8116 3.27241 24.4276 3.27241Z" fill="white"/>
<path d="M28.0795 6.99904V2.71497H28.8475V4.46989H30.9382V2.71497H31.7062V6.99904H30.9382V5.15121H28.8475V6.99904H28.0795Z" fill="white"/>
<path d="M36.8964 6.48289C36.4555 6.90958 35.8973 7.12292 35.2217 7.12292C34.5462 7.12292 33.9844 6.90958 33.5364 6.48289C33.0955 6.0562 32.8751 5.5194 32.8751 4.87249C32.8751 4.2187 33.0955 3.67846 33.5364 3.25177C33.9844 2.82508 34.5462 2.61174 35.2217 2.61174C35.8973 2.61174 36.4555 2.82508 36.8964 3.25177C37.3444 3.67846 37.5684 4.2187 37.5684 4.87249C37.5684 5.5194 37.3444 6.0562 36.8964 6.48289ZM36.3204 3.69566C36.0217 3.4135 35.6555 3.27241 35.2217 3.27241C34.788 3.27241 34.4182 3.41694 34.1124 3.70598C33.8137 3.98815 33.6644 4.37698 33.6644 4.87249C33.6644 5.368 33.8173 5.75683 34.1231 6.039C34.4289 6.32116 34.7951 6.46224 35.2217 6.46224C35.6484 6.46224 36.0146 6.32116 36.3204 6.039C36.6262 5.75683 36.7791 5.368 36.7791 4.87249C36.7791 4.3701 36.6262 3.97782 36.3204 3.69566Z" fill="white"/>
<path d="M41.2357 2.71497H42.9104C43.3157 2.71497 43.6251 2.79755 43.8384 2.96272C44.0944 3.1623 44.2224 3.4307 44.2224 3.76792C44.2224 4.13955 44.0624 4.42516 43.7424 4.62474C43.9629 4.67979 44.1477 4.77614 44.2971 4.91378C44.5317 5.13401 44.6491 5.40929 44.6491 5.73963C44.6491 6.15255 44.4962 6.47601 44.1904 6.71C43.9273 6.9027 43.5789 6.99904 43.1451 6.99904H41.2357V2.71497ZM42.0037 4.45957H42.8144C43.0206 4.45957 43.1842 4.41828 43.3051 4.33569C43.4473 4.23246 43.5184 4.0845 43.5184 3.8918C43.5184 3.71975 43.4473 3.58211 43.3051 3.47888C43.1984 3.41006 42.9922 3.37565 42.6864 3.37565H42.0037V4.45957ZM42.0037 6.33837H42.9531C43.2802 6.33837 43.5113 6.29019 43.6464 6.19384C43.8171 6.06997 43.9024 5.91168 43.9024 5.71898C43.9024 5.51252 43.8277 5.35079 43.6784 5.2338C43.5433 5.13057 43.3122 5.07895 42.9851 5.07895H42.0037V6.33837Z" fill="white"/>
<defs>
<clipPath id="clip0_505_13163">
<rect width="80" height="13.549" fill="white" transform="translate(0 13.4512)"/>
</clipPath>
</defs>
</svg>
