<svg width="32" height="31" viewBox="0 0 32 31" fill="none" xmlns="http://www.w3.org/2000/svg">
<path d="M16.5892 16.2451C17.5882 19.5564 14.8429 21.3523 13.0891 25.2622C10.5213 30.9907 6.7769 31.362 5.17851 28.9448C3.58012 26.5276 5.76308 23.2466 4.74929 20.3748L4.74929 20.3217C3.84649 17.412 0.168733 16.1618 0.00593489 13.2445C-0.156865 10.3272 3.0399 8.29646 8.47888 11.2592C12.1715 13.2748 15.4201 12.9944 16.5892 16.2451Z" fill="#EC6708"/>
<path d="M14.9823 25.2071C15.5941 23.2019 18.5504 22.3634 21.5853 23.3343C24.6202 24.3052 26.5846 26.7179 25.9728 28.7231C25.361 30.7283 22.4047 31.5668 19.3697 30.5959C16.3348 29.625 14.3705 27.2123 14.9823 25.2071Z" fill="#EC6708"/>
<path d="M16.3525 7.48568C14.5173 10.1453 11.6683 11.2744 9.99589 10.0999C8.32349 8.92538 8.4567 5.75047 10.2919 3.09839C12.1271 0.446315 14.9761 -0.735757 16.6485 0.47662C18.3209 1.689 18.1877 4.84876 16.3525 7.48568Z" fill="#EC6708"/>
<path d="M25.3871 14.1567C28.7009 13.6448 31.6487 15.0043 31.9712 17.1933C32.2938 19.3823 29.8689 21.5719 26.5552 22.0839C23.2414 22.5958 20.2936 21.2363 19.9711 19.0473C19.6485 16.8583 22.0734 14.6687 25.3871 14.1567Z" fill="#EC6708"/>
<path d="M24.8106 12.4564C21.8506 14.1083 18.6464 13.8734 17.603 11.9336C16.5597 9.99379 18.1062 7.08408 21.044 5.42464C23.9818 3.7652 27.2082 4.00767 28.2516 5.94748C29.295 7.88728 27.7484 10.8046 24.8106 12.4564Z" fill="#EC6708"/>
</svg>
