<svg width="332" height="161" viewBox="0 0 332 161" fill="none" xmlns="http://www.w3.org/2000/svg">
<path d="M-118.482 160.502C-118.16 160.819 -117.728 160.996 -117.277 160.996C-116.827 160.996 -116.394 160.819 -116.072 160.502C-115.976 160.417 -113.181 157.558 -108.012 152.834C-104.097 155.196 -92.7351 160.587 -82.0845 151.719C-82.0057 151.657 -81.945 151.575 -81.909 151.481C-81.8729 151.387 -81.8628 151.285 -81.8797 151.186C-81.8948 151.087 -81.9349 150.994 -81.9961 150.916C-82.0573 150.837 -82.1375 150.776 -82.2291 150.738C-87.3553 148.677 -92.7965 147.522 -98.3134 147.321C-99.6129 147.322 -100.91 147.427 -102.193 147.636C-98.5785 144.426 -94.205 140.743 -89.2411 136.733C-85.217 139.689 -72.2653 147.503 -52.6147 142.972C-52.5151 142.95 -52.4233 142.901 -52.3491 142.831C-52.2748 142.76 -52.2209 142.671 -52.193 142.572C-52.1638 142.477 -52.1595 142.376 -52.1806 142.278C-52.2017 142.18 -52.2475 142.09 -52.3134 142.015C-52.458 141.87 -62.8195 130.942 -76.7231 130.942C-78.8018 130.943 -80.8729 131.195 -82.8917 131.693C-77.3616 127.368 -71.2291 122.765 -64.5182 118.04C-61.5423 121.359 -51.5785 128.471 -24.4942 119.821C-24.3906 119.791 -24.2978 119.732 -24.2272 119.65C-24.1566 119.568 -24.1112 119.468 -24.0966 119.36C-24.0808 119.252 -24.0949 119.142 -24.1374 119.042C-24.1799 118.941 -24.2492 118.855 -24.3376 118.791C-31.4609 114.291 -39.6846 111.863 -48.0966 111.777C-51.0777 111.781 -54.0486 112.127 -56.952 112.806C-53.1206 110.206 -49.1729 107.601 -45.1086 104.992C-41.5424 102.739 -37.8034 100.457 -33.8918 98.1475C-31.5368 100.731 -28.7368 102.865 -25.6267 104.447C-19.8074 107.5 -9.83148 110.335 4.4938 106.591C4.59729 106.565 4.69144 106.51 4.76587 106.433C4.8403 106.356 4.89206 106.26 4.91547 106.155C4.94086 106.052 4.93622 105.943 4.90204 105.842C4.86789 105.741 4.80563 105.652 4.72269 105.586C-4.40488 98.917 -15.3922 95.3135 -26.6749 95.2884C-27.4942 95.2884 -28.3134 95.2884 -29.1568 95.349C-21.3978 90.9029 -13.0363 86.4446 -4.15683 82.1439C9.09113 93.2292 26.1359 98.6449 43.3131 97.2268C43.4186 97.2168 43.5194 97.178 43.6044 97.1144C43.6895 97.0508 43.7554 96.9649 43.7952 96.8661C43.835 96.7673 43.847 96.6595 43.83 96.5543C43.813 96.4491 43.7675 96.3507 43.6986 96.2697C43.5179 96.0638 28.1444 78.7638 5.3613 78.7638C4.52997 78.7638 3.67453 78.7638 2.81909 78.8365C12.6504 74.3056 23.0721 70.0048 33.9757 66.1523C53.3372 92.8049 80.9637 88.9887 81.2769 88.9403C81.375 88.925 81.4675 88.8848 81.5455 88.8232C81.6236 88.7617 81.6846 88.681 81.7227 88.5889C81.7595 88.4956 81.7722 88.3944 81.7596 88.2949C81.7469 88.1953 81.7094 88.1005 81.6504 88.0195C69.2408 71.7251 48.289 66.2129 38.6263 64.5532C47.8793 61.4397 57.4576 58.6654 67.3131 56.3515C72.7468 62.5785 97.3251 88.3466 129.361 85.427C129.467 85.4206 129.568 85.3841 129.653 85.3219C129.738 85.2597 129.804 85.1742 129.843 85.0756C129.883 84.9781 129.896 84.8717 129.881 84.7673C129.866 84.663 129.824 84.5645 129.759 84.482C129.506 84.1791 107.301 57.2601 77.9516 54.0497C88.0522 52.0575 98.2575 50.6458 108.518 49.8216C133.65 82.9798 166.94 84.4578 167.337 84.4699C167.445 84.4752 167.551 84.4502 167.646 84.3978C167.74 84.3454 167.818 84.2676 167.87 84.1732C167.923 84.0788 167.948 83.9715 167.943 83.8634C167.939 83.7553 167.904 83.6507 167.843 83.5613C156.24 66.3039 138.607 54.0655 118.446 49.2764C121.325 49.1553 124.229 49.0705 127.144 49.0584H128.349C136.929 49.0528 145.504 49.5057 154.036 50.4152C156.638 57.1874 168.289 83.6219 193.036 88.5768C193.14 88.6009 193.248 88.595 193.349 88.56C193.449 88.5249 193.538 88.462 193.605 88.3785C193.671 88.295 193.713 88.1943 193.726 88.088C193.738 87.9816 193.72 87.8739 193.675 87.7772C193.554 87.4865 182.313 62.0091 163.072 51.5783C172.344 52.9341 181.529 54.8395 190.578 57.2843C189.373 61.682 188.867 74.027 210.65 93.9921C210.736 94.0698 210.842 94.1196 210.957 94.1347C211.071 94.1499 211.187 94.1297 211.289 94.0769C211.394 94.0295 211.482 93.9504 211.54 93.8505C211.598 93.7507 211.624 93.635 211.614 93.5196C211.108 88.1145 210.034 82.7784 208.409 77.6008C205.915 69.7141 202.385 63.5598 197.94 59.4286C202.976 60.9672 207.988 62.6996 212.952 64.5774C209.65 92.0901 235.048 107.415 235.313 107.561C235.397 107.605 235.49 107.629 235.584 107.629C235.679 107.629 235.772 107.605 235.855 107.561C235.939 107.52 236.012 107.458 236.066 107.382C236.121 107.306 236.156 107.218 236.168 107.125C238.723 89.2916 225.217 73.506 218.096 66.5885C228.239 70.6945 238.115 75.4408 247.662 80.7991C245.634 85.3769 244.372 90.2604 243.928 95.2521C243.072 104.774 244.831 119.324 258.108 134.528C258.176 134.609 258.265 134.67 258.365 134.702C258.465 134.734 258.573 134.737 258.675 134.71C258.778 134.687 258.872 134.635 258.947 134.56C259.022 134.485 259.073 134.39 259.096 134.286C259.181 133.971 266.012 105.816 254.699 84.906C258.924 87.4421 263.12 90.1073 267.289 92.9018C268.506 130.833 294.313 139.556 294.578 139.641C294.679 139.671 294.785 139.674 294.887 139.649C294.989 139.623 295.082 139.57 295.156 139.495C295.234 139.423 295.29 139.33 295.315 139.226C295.341 139.123 295.336 139.014 295.301 138.914C290.885 124.071 283.823 110.159 274.458 97.8567C282.65 103.72 290.719 110.109 298.662 117.022C305.277 146.704 331.168 146.655 331.434 146.691C331.52 146.69 331.606 146.669 331.683 146.629C331.76 146.589 331.828 146.531 331.879 146.461C331.932 146.394 331.969 146.315 331.988 146.231C332.006 146.147 332.006 146.06 331.988 145.977C325.446 117.87 306.903 114.551 300.747 114.236C297.229 111.183 293.691 108.235 290.132 105.392C313.277 114.684 326.687 102.848 326.843 102.715C326.915 102.65 326.969 102.569 327 102.478C327.032 102.387 327.04 102.289 327.024 102.194C327.011 102.099 326.975 102.009 326.918 101.933C326.861 101.857 326.785 101.796 326.699 101.758C310.47 94.1375 299.59 91.7751 292.325 91.7751C289.316 91.6894 286.322 92.2297 283.53 93.3622C281.738 94.1112 280.173 95.3182 278.988 96.8633C271.526 91.4117 263.968 86.3921 256.313 81.8046C263.156 83.2463 271.614 81.4775 281.229 76.4984C287.583 73.1393 293.564 69.1107 299.072 64.4805C299.158 64.4107 299.221 64.3173 299.254 64.2118C299.288 64.1063 299.29 63.9933 299.261 63.8866C299.231 63.7799 299.172 63.6841 299.089 63.611C299.006 63.5379 298.904 63.4906 298.795 63.475C295.03 62.7893 291.212 62.4406 287.385 62.4331C264.06 62.4331 250.952 75.9047 249.289 77.7341C239.78 72.3962 229.949 67.6583 219.855 63.5477C250.181 59.2348 259.554 41.523 259.65 41.3413C259.699 41.2537 259.724 41.1547 259.723 41.0543C259.721 40.9539 259.694 40.8556 259.642 40.7695C259.591 40.6834 259.518 40.6125 259.43 40.564C259.343 40.5155 259.244 40.491 259.144 40.4932H258.506C235.313 40.4932 219.397 56.2424 214.675 61.5245C208 58.9804 201.265 56.7391 194.47 54.8008C204.759 48.5011 210.385 41.3897 213.325 36.35C215.309 33.1621 216.694 29.6346 217.409 25.9434C217.425 25.8501 217.416 25.7545 217.385 25.6655C217.353 25.5764 217.299 25.497 217.229 25.4345C217.123 25.3392 216.985 25.2873 216.843 25.2892H216.711C191.891 31.3466 190.506 47.8954 190.843 53.771C180.483 50.9941 169.949 48.9178 159.313 47.5561C182.108 38.7729 190.168 13.0654 190.253 12.7867C190.281 12.6931 190.285 12.5937 190.264 12.4982C190.243 12.4028 190.197 12.3143 190.132 12.2415C190.078 12.1786 190.012 12.1277 189.937 12.0923C189.863 12.0568 189.781 12.0375 189.699 12.0356H189.614C158.048 16.5302 153.903 40.1177 153.373 46.8414C145.011 45.9826 136.611 45.55 128.205 45.5451H127C124.317 45.5451 121.638 45.6057 118.964 45.7268C146.879 34.666 150.385 1.96819 150.422 1.59264C150.432 1.49028 150.415 1.38702 150.373 1.29338C150.33 1.19974 150.264 1.11905 150.181 1.05957C150.079 0.996811 149.962 0.963287 149.843 0.962662C149.764 0.944473 149.682 0.944473 149.602 0.962662C121.638 14.4585 110.422 39.8148 107.94 46.3083C97.3903 47.1896 86.8994 48.6741 76.5179 50.7544C97.9275 37.0526 104.458 3.71272 104.53 3.33716C104.553 3.23248 104.545 3.12354 104.509 3.02281C104.473 2.92209 104.409 2.83369 104.325 2.76776C104.223 2.68474 104.095 2.64169 103.964 2.64661C103.888 2.62944 103.81 2.62944 103.735 2.64661C74.2167 15.5246 67.5902 45.7268 66.3853 52.9109C56.4456 55.2611 46.795 58.0597 37.4697 61.1974C47.9034 47.8711 42.9396 21.4367 42.6986 20.2131C42.6782 20.1076 42.6291 20.0099 42.5568 19.9307C42.4845 19.8516 42.3918 19.7942 42.289 19.7648H42.1324C42.0533 19.7639 41.975 19.7795 41.9024 19.8108C41.8298 19.8421 41.7645 19.8884 41.7107 19.9465C20.9155 42.8314 28.5299 58.3625 31.8793 63.1479C21.5179 66.855 11.5902 70.9377 2.1926 75.2627C6.10828 70.4167 8.83118 63.3538 10.1806 54.4858C11.1022 48.1703 11.3566 41.7744 10.9396 35.405C10.9292 35.3004 10.8914 35.2003 10.8301 35.1152C10.7687 35.0301 10.6859 34.9628 10.5902 34.9204C10.5144 34.9078 10.4371 34.9078 10.3613 34.9204C10.233 34.9228 10.1095 34.9699 10.0119 35.0537C-9.8074 50.9725 -7.03632 73.0699 -5.83148 79.1031C-14.0243 83.0888 -21.7713 87.1957 -29.0122 91.3026C-20.0484 77.5887 -27.0363 57.6841 -27.1207 57.4539C-27.1564 57.358 -27.2162 57.2729 -27.2944 57.2071C-27.3725 57.1413 -27.4662 57.097 -27.5664 57.0784H-27.6628C-27.7489 57.0774 -27.834 57.0966 -27.9113 57.1345C-27.9887 57.1723 -28.0563 57.2278 -28.1086 57.2964C-40.0966 72.5611 -36.8556 89.7883 -35.4701 95.034C-39.458 97.3843 -43.2773 99.7224 -46.9038 102.012C-49.8917 103.902 -52.8074 105.804 -55.6387 107.694C-52.2834 103.192 -50.2535 97.833 -49.7806 92.2274C-49.3077 86.6217 -50.4107 80.9953 -52.964 75.9895C-53.0076 75.9155 -53.0669 75.8522 -53.1378 75.804C-53.2086 75.7558 -53.2891 75.724 -53.3737 75.7109H-53.458C-53.5977 75.7109 -53.7334 75.7578 -53.8436 75.8442C-70.1689 90.0912 -67.3134 109.184 -66.0243 114.793C-73.1929 119.845 -79.7351 124.752 -85.5905 129.331C-83.7715 125.842 -82.9776 121.905 -83.3014 117.979C-84.1689 108.675 -91.3134 102.715 -91.6147 102.472C-91.7211 102.388 -91.8524 102.341 -91.9881 102.339H-92.1086C-92.195 102.356 -92.2761 102.394 -92.3453 102.448C-92.4144 102.503 -92.4696 102.574 -92.5062 102.654C-98.8918 116.162 -96.2291 131.136 -92.8677 135.146C-97.2532 138.78 -101.133 142.027 -104.446 144.935C-102.458 136.648 -109.205 128.144 -109.265 127.974C-109.318 127.905 -109.385 127.85 -109.463 127.812C-109.54 127.774 -109.625 127.755 -109.711 127.756C-109.805 127.762 -109.897 127.792 -109.977 127.843C-110.057 127.894 -110.123 127.964 -110.169 128.047C-112.17 131.39 -113.242 135.211 -113.274 139.113C-113.306 143.015 -112.296 146.853 -110.35 150.229C-115.542 154.966 -118.35 157.825 -118.446 157.922C-118.625 158.084 -118.769 158.281 -118.869 158.502C-118.969 158.723 -119.022 158.962 -119.026 159.204C-119.029 159.447 -118.982 159.687 -118.889 159.91C-118.795 160.134 -118.657 160.335 -118.482 160.502Z" fill="#EC6708"/>
</svg>
