<svg width="41" height="40" viewBox="0 0 41 40" fill="none" xmlns="http://www.w3.org/2000/svg">
<circle cx="20.5" cy="20" r="19" stroke="#2B2A29" stroke-width="2"/>
<path d="M20.5 17.52C20.0095 17.52 19.53 17.6654 19.1222 17.938C18.7144 18.2105 18.3965 18.5978 18.2088 19.0509C18.0211 19.5041 17.972 20.0028 18.0677 20.4838C18.1633 20.9649 18.3995 21.4068 18.7464 21.7536C19.0932 22.1005 19.5351 22.3367 20.0162 22.4323C20.4972 22.528 20.9959 22.4789 21.4491 22.2912C21.9022 22.1035 22.2895 21.7856 22.562 21.3778C22.8346 20.97 22.98 20.4905 22.98 20C22.98 19.6743 22.9159 19.3518 22.7912 19.0509C22.6666 18.7501 22.4839 18.4767 22.2536 18.2464C22.0233 18.0161 21.7499 17.8334 21.4491 17.7088C21.1482 17.5841 20.8257 17.52 20.5 17.52ZM30.43 15.07C30.4247 14.2978 30.2825 13.5326 30.01 12.81C29.8093 12.2813 29.4987 11.8011 29.0988 11.4012C28.6989 11.0013 28.2187 10.6907 27.69 10.49C26.9674 10.2175 26.2022 10.0753 25.43 10.07C24.14 10 23.76 10 20.5 10C17.24 10 16.86 10 15.57 10.07C14.7978 10.0753 14.0326 10.2175 13.31 10.49C12.7813 10.6907 12.3011 11.0013 11.9012 11.4012C11.5013 11.8011 11.1907 12.2813 10.99 12.81C10.7175 13.5326 10.5753 14.2978 10.57 15.07C10.5 16.36 10.5 16.74 10.5 20C10.5 23.26 10.5 23.64 10.57 24.93C10.5808 25.705 10.7228 26.4725 10.99 27.2C11.1898 27.7263 11.5001 28.2037 11.9 28.6C12.2982 29.0023 12.7794 29.3129 13.31 29.51C14.0326 29.7825 14.7978 29.9247 15.57 29.93C16.86 30 17.24 30 20.5 30C23.76 30 24.14 30 25.43 29.93C26.2022 29.9247 26.9674 29.7825 27.69 29.51C28.2206 29.3129 28.7018 29.0023 29.1 28.6C29.4999 28.2037 29.8102 27.7263 30.01 27.2C30.2823 26.4739 30.4244 25.7055 30.43 24.93C30.5 23.64 30.5 23.26 30.5 20C30.5 16.74 30.5 16.36 30.43 15.07ZM27.89 23.07C27.8579 23.6871 27.7262 24.295 27.5 24.87C27.3059 25.3497 27.0173 25.7854 26.6514 26.1514C26.2854 26.5173 25.8497 26.8059 25.37 27C24.7895 27.2136 24.1783 27.3318 23.56 27.35C22.77 27.35 22.56 27.35 20.5 27.35C18.44 27.35 18.23 27.35 17.44 27.35C16.8217 27.3318 16.2105 27.2136 15.63 27C15.1341 26.8157 14.6863 26.5217 14.32 26.14C13.9577 25.7813 13.6778 25.3479 13.5 24.87C13.2856 24.2901 13.1706 23.6782 13.16 23.06C13.16 22.27 13.16 22.06 13.16 20C13.16 17.94 13.16 17.73 13.16 16.94C13.1706 16.3218 13.2856 15.7099 13.5 15.13C13.6843 14.6341 13.9783 14.1863 14.36 13.82C14.7203 13.4596 15.1533 13.1801 15.63 13C16.2105 12.7864 16.8217 12.6682 17.44 12.65C18.23 12.65 18.44 12.65 20.5 12.65C22.56 12.65 22.77 12.65 23.56 12.65C24.1783 12.6682 24.7895 12.7864 25.37 13C25.8659 13.1843 26.3137 13.4783 26.68 13.86C27.0423 14.2187 27.3222 14.6521 27.5 15.13C27.7136 15.7105 27.8318 16.3217 27.85 16.94C27.85 17.73 27.85 17.94 27.85 20C27.85 22.06 27.92 22.27 27.89 23.06V23.07ZM26.29 15.63C26.1709 15.307 25.9832 15.0136 25.7398 14.7702C25.4964 14.5268 25.203 14.3391 24.88 14.22C24.4365 14.0663 23.9693 13.9918 23.5 14C22.72 14 22.5 14 20.5 14C18.5 14 18.28 14 17.5 14C17.0283 14.0046 16.5611 14.0926 16.12 14.26C15.8019 14.3737 15.5117 14.5537 15.2686 14.7882C15.0255 15.0227 14.8351 15.3062 14.71 15.62C14.5648 16.0654 14.4938 16.5316 14.5 17C14.5 17.78 14.5 18 14.5 20C14.5 22 14.5 22.22 14.5 23C14.5099 23.4712 14.5978 23.9375 14.76 24.38C14.8791 24.703 15.0668 24.9964 15.3102 25.2398C15.5536 25.4832 15.847 25.6709 16.17 25.79C16.5967 25.9469 17.0457 26.0347 17.5 26.05C18.28 26.05 18.5 26.05 20.5 26.05C22.5 26.05 22.72 26.05 23.5 26.05C23.9717 26.0454 24.4389 25.9574 24.88 25.79C25.203 25.6709 25.4964 25.4832 25.7398 25.2398C25.9832 24.9964 26.1709 24.703 26.29 24.38C26.4574 23.9389 26.5454 23.4717 26.55 23C26.55 22.22 26.55 22 26.55 20C26.55 18 26.55 17.78 26.55 17C26.5503 16.5278 26.4621 16.0597 26.29 15.62V15.63ZM20.5 23.82C19.9988 23.82 19.5026 23.7211 19.0397 23.529C18.5768 23.3369 18.1563 23.0554 17.8024 22.7005C17.4485 22.3457 17.168 21.9245 16.9771 21.4611C16.7863 20.9977 16.6887 20.5012 16.69 20C16.69 19.2441 16.9143 18.5051 17.3345 17.8767C17.7547 17.2483 18.3519 16.7587 19.0505 16.4698C19.7491 16.181 20.5177 16.1059 21.2589 16.2541C22.0002 16.4024 22.6808 16.7672 23.2147 17.3024C23.7485 17.8376 24.1116 18.5192 24.2578 19.2609C24.4041 20.0026 24.327 20.771 24.0363 21.4688C23.7457 22.1666 23.2545 22.7625 22.625 23.1811C21.9955 23.5996 21.2559 23.822 20.5 23.82ZM24.5 16.93C24.2789 16.9066 24.0744 16.8022 23.9257 16.637C23.777 16.4717 23.6947 16.2573 23.6947 16.035C23.6947 15.8127 23.777 15.5983 23.9257 15.433C24.0744 15.2678 24.2789 15.1634 24.5 15.14C24.7211 15.1634 24.9256 15.2678 25.0743 15.433C25.223 15.5983 25.3053 15.8127 25.3053 16.035C25.3053 16.2573 25.223 16.4717 25.0743 16.637C24.9256 16.8022 24.7211 16.9066 24.5 16.93Z" fill="#2B2A29"/>
</svg>
