<svg width="41" height="40" viewBox="0 0 41 40" fill="none" xmlns="http://www.w3.org/2000/svg">
<path d="M40 36.6436V7.88502C40 6.33987 38.6956 5.02857 37.1436 5.02857H29.058C28.7932 2.48771 26.6344 0.5 24.0188 0.5C21.4032 0.5 19.2445 2.48771 18.9796 5.02857H3.85645C2.30262 5.02857 1 6.33004 1 7.88502V36.6436C1 38.2186 2.28136 39.5 3.85645 39.5H37.1436C38.3586 39.5 40 38.3574 40 36.6436ZM27.9109 25.299L38.8574 13.9963V36.2454L27.9109 25.299ZM24.0188 1.64258C26.1826 1.64258 27.943 3.39773 27.943 5.55515C27.943 7.09488 27.3331 9.25573 26.3514 11.1945C25.3403 13.191 24.3787 14.0891 24.0188 14.0891C23.6746 14.0891 22.7291 13.2742 21.657 11.0874C20.7079 9.15168 20.0946 6.98009 20.0946 5.55515C20.0947 3.39773 21.855 1.64258 24.0188 1.64258ZM2.14258 7.88502C2.14258 7.61781 2.20413 7.36469 2.31366 7.13906L8.53355 13.359L2.14258 19.7499V7.88502ZM2.14258 36.6436V27.2563L12.2868 17.1121L33.532 38.3574H3.85645C2.91138 38.3574 2.14258 37.5885 2.14258 36.6436ZM37.1436 38.3574H35.148L12.6907 15.9002C12.4676 15.6772 12.1059 15.6772 11.8828 15.9002L2.14258 25.6404V21.3658L9.74545 13.7629C9.96855 13.5397 9.96855 13.178 9.74545 12.9549L3.12565 6.33515C3.34746 6.23011 3.59518 6.17115 3.85645 6.17115H7.1671L23.6643 22.6683C23.8889 22.8927 24.2537 22.8913 24.4762 22.6643L31.7004 15.2964C32.2174 14.7689 31.4019 13.9692 30.8845 14.4964L24.0643 21.4523L8.78301 6.17115H18.9796C19.1322 7.98183 19.9037 10.1069 20.631 11.5905C22.1844 14.7587 23.4203 15.2317 24.0188 15.2317C25.4349 15.2317 26.8346 12.7694 27.3707 11.7107C28.3219 9.83243 28.9325 7.81319 29.0597 6.17115H37.1436C37.6674 6.17115 38.1368 6.40766 38.4514 6.77915L33.1507 12.1852C32.6344 12.712 33.4483 13.5137 33.9666 12.9852L38.8574 7.99714V12.3539L26.699 24.908C26.482 25.132 26.4848 25.4888 26.7054 25.7094L38.5771 37.5812C38.2707 38.0482 37.7426 38.3574 37.1436 38.3574Z" fill="#EC6708" stroke="#EC6708" stroke-width="0.5"/>
<path d="M24.0188 8.36079C25.4897 8.36079 26.6864 7.16177 26.6864 5.68784C26.6864 4.21391 25.4897 3.01489 24.0188 3.01489C22.5479 3.01489 21.3512 4.21391 21.3512 5.68784C21.3512 7.16177 22.5479 8.36079 24.0188 8.36079ZM24.0188 4.15755C24.8597 4.15755 25.5438 4.84408 25.5438 5.68792C25.5438 6.53175 24.8598 7.21829 24.0188 7.21829C23.1779 7.21829 22.4938 6.53175 22.4938 5.68792C22.4938 4.84408 23.178 4.15755 24.0188 4.15755Z" fill="#EC6708" stroke="#EC6708" stroke-width="0.5"/>
<path d="M17.0256 25.1594C16.696 24.4983 15.6735 25.0084 16.0032 25.6694C16.2745 26.2135 16.4121 26.7985 16.4121 27.4084C16.4121 28.9482 15.8023 31.109 14.8205 33.0476C13.8095 35.0442 12.8479 35.9423 12.4879 35.9423C12.1438 35.9423 11.1982 35.1274 10.1261 32.9406C9.17703 31.0049 8.56377 28.8334 8.56377 27.4084C8.56377 25.251 10.3241 23.4958 12.4879 23.4958C13.0586 23.4958 13.6101 23.6163 14.1271 23.8537C14.7984 24.162 15.2753 23.1237 14.604 22.8154C13.9363 22.5087 13.2244 22.3533 12.488 22.3533C9.69416 22.3533 7.42126 24.621 7.42126 27.4084C7.42126 29.3334 8.28856 31.7881 9.10025 33.4436C10.6535 36.6118 11.8895 37.0848 12.488 37.0848C13.904 37.0848 15.3038 34.6225 15.8399 33.5638C16.9137 31.4434 17.5547 29.1422 17.5547 27.4083C17.5546 26.62 17.3767 25.8634 17.0256 25.1594Z" fill="#EC6708" stroke="#EC6708" stroke-width="0.5"/>
<path d="M12.4882 24.868C11.0173 24.868 9.82068 26.0671 9.82068 27.541C9.82068 29.0149 11.0173 30.2139 12.4882 30.2139C13.9591 30.2139 15.1558 29.0149 15.1558 27.541C15.1558 26.0671 13.9591 24.868 12.4882 24.868ZM12.4882 29.0714C11.6474 29.0714 10.9633 28.3848 10.9633 27.541C10.9633 26.6972 11.6474 26.0106 12.4882 26.0106C13.3291 26.0106 14.0132 26.6972 14.0132 27.541C14.0132 28.3848 13.3291 29.0714 12.4882 29.0714Z" fill="#EC6708" stroke="#EC6708" stroke-width="0.5"/>
</svg>
