<svg width="60" height="16" viewBox="0 0 60 16" fill="none" xmlns="http://www.w3.org/2000/svg">
<g clip-path="url(#clip0_505_13140)">
<path fill-rule="evenodd" clip-rule="evenodd" d="M5.54839 0.00270264C6.08443 -0.00040052 7.67748 -0.139245 8.35227 2.0646C8.80682 3.54914 9.53088 5.98088 10.5245 9.35982H10.9291C11.9946 5.7975 12.7266 3.36576 13.125 2.0646C13.8068 -0.162202 15.5114 0.00274628 16.1932 0.00274628L21.4536 0.00275263V15.8378H16.092V6.50593H15.7325L12.7437 15.8378H8.70985L5.72106 6.49901H5.36153V15.8378H0V0.00275263L5.54839 0.00270264ZM29.1526 0.00275263V9.34154H29.5803L33.2159 1.66232C33.9217 0.134135 35.4258 0.00275263 35.4258 0.00275263H40.6142V15.8378H35.1407V6.49901H34.7129L31.1486 14.1782C30.4429 15.6995 28.8675 15.8378 28.8675 15.8378H23.6791V0.00275263H29.1526ZM59.533 7.52767C58.7696 9.62135 56.3719 11.1208 53.7173 11.1208H47.9773V15.8378H42.7723V7.52767H59.533Z" fill="white"/>
<path fill-rule="evenodd" clip-rule="evenodd" d="M53.9679 0.00292969H42.4989C42.7719 3.52835 45.9092 6.54634 49.157 6.54634H59.8943C60.5139 3.6163 58.3809 0.00292969 53.9679 0.00292969Z" fill="white"/>
</g>
<defs>
<clipPath id="clip0_505_13140">
<rect width="60" height="16" fill="white"/>
</clipPath>
</defs>
</svg>
