<svg width="146" height="188" viewBox="0 0 146 188" fill="none" xmlns="http://www.w3.org/2000/svg">
<g opacity="0.2" clip-path="url(#clip0_505_12050)">
<path d="M130.415 110.377C130.415 110.377 121.997 168.462 108.179 165.383C108.179 165.383 99.6653 167.621 99.6494 149.513C99.6494 149.513 93.4709 184.682 81.3523 183.777C69.2336 182.872 73.7444 155.766 73.7444 155.766C73.7444 155.766 61.038 189.459 50.9524 187.967C40.8668 186.475 44.7422 154.211 44.7422 154.211C44.7422 154.211 15.3429 163.638 2.68427 156.75C-9.97441 149.862 26.5086 134.119 30.9717 132.246C30.9717 132.246 9.41862 120.074 19.1866 113.646C28.9546 107.219 55.082 120.677 55.082 120.677C55.082 120.677 37.1978 99.8231 45.1869 95.1731C53.176 90.5231 85.4818 112.519 85.4818 112.519C85.4818 112.519 66.9783 86.8888 84.0206 82.3657C101.063 77.8427 130.415 110.377 130.415 110.377Z" fill="#F7E3C1"/>
<path d="M43.5192 143.435C43.5192 143.435 95.6468 138.832 149.442 96.9822" stroke="white" stroke-width="3" stroke-miterlimit="10" stroke-linecap="round"/>
<path d="M142.406 81.4769C142.406 81.4769 159.877 41.4678 149.919 37.9763C149.919 37.9763 145.408 33.2152 138.292 44.6736C138.292 44.6736 148.203 20.027 140.183 15.8531C132.162 11.6792 124.3 30.5649 124.3 30.5649C124.3 30.5649 129.557 4.2995 122.6 1.28414C115.643 -1.73122 105.431 20.1857 105.431 20.1857C105.431 20.1857 90.5326 2.71247 79.8434 2.09353C69.1542 1.47458 85.9583 25.7086 88.1025 28.6763C88.1025 28.6763 69.6942 27.9304 73.3473 35.818C77.0004 43.7055 98.7917 45.4354 98.7917 45.4354C98.7917 45.4354 79.4146 51.6248 82.5911 57.6873C85.7677 63.7497 114.881 62.4484 114.881 62.4484C114.881 62.4484 93.1215 71.3992 102.175 80.8897C111.228 90.3801 142.406 81.4769 142.406 81.4769Z" fill="#F7E3C1"/>
<path d="M100.443 26.5181C100.443 26.5181 131.606 49.8633 149.188 97.4108" stroke="white" stroke-width="3" stroke-miterlimit="10" stroke-linecap="round"/>
</g>
<defs>
<clipPath id="clip0_505_12050">
<rect width="153" height="187" fill="white" transform="translate(0 0.998535)"/>
</clipPath>
</defs>
</svg>
