<svg width="38" height="87" viewBox="0 0 38 87" fill="none" xmlns="http://www.w3.org/2000/svg">
<path opacity="0.1" d="M0.215629 66.3506C8.49826 50.2153 13.6855 45.0979 16.6537 43.7417V26.7395C12.2438 32.4162 4.35694 39.9385 2.26508 35.8837C-0.561755 30.5006 13.0212 -5.23739 19.537 1.94937C26.0529 9.13613 39.961 38.9877 33.6712 39.4212C29.2331 39.7428 24.0176 31.032 21.3321 25.9146V45.2796C34.6889 58.4787 40.9079 73.3276 36.6959 74.3623C32.9362 75.2991 23.749 61.4709 21.3321 57.7237V90.4975C21.3572 90.8165 21.3153 91.1372 21.2091 91.4394C21.103 91.7417 20.9347 92.0189 20.7151 92.2538C20.4954 92.4886 20.229 92.6761 19.9327 92.8042C19.6363 92.9324 19.3163 92.9985 18.9929 92.9985C18.6694 92.9985 18.3495 92.9324 18.0531 92.8042C17.7567 92.6761 17.4903 92.4886 17.2707 92.2538C17.051 92.0189 16.8828 91.7417 16.7766 91.4394C16.6705 91.1372 16.6286 90.8165 16.6537 90.4975V60.2684C12.8955 63.3248 8.93373 66.1275 4.79511 68.6576C-1.50873 72.4048 0.215629 66.3506 0.215629 66.3506Z" fill="#F7E3C1"/>
</svg>
