<svg width="156" height="84" viewBox="0 0 156 84" fill="none" xmlns="http://www.w3.org/2000/svg">
<path d="M16.5892 31.2451C17.5882 34.5564 14.8429 36.3523 13.0891 40.2622C10.5213 45.9907 6.7769 46.362 5.17851 43.9448C3.58012 41.5276 5.76308 38.2466 4.74929 35.3748L4.74929 35.3217C3.84649 32.412 0.168734 31.1618 0.00593645 28.2445C-0.156863 25.3272 3.0399 23.2965 8.47888 26.2592C12.1715 28.2748 15.4201 27.9944 16.5892 31.2451Z" fill="#EC6708"/>
<path d="M14.9823 40.2071C15.5941 38.2019 18.5504 37.3634 21.5853 38.3343C24.6202 39.3052 26.5846 41.7179 25.9728 43.7231C25.361 45.7283 22.4047 46.5668 19.3697 45.5959C16.3348 44.625 14.3705 42.2123 14.9823 40.2071Z" fill="#EC6708"/>
<path d="M16.3525 22.4857C14.5173 25.1453 11.6683 26.2744 9.99589 25.0999C8.3235 23.9254 8.4567 20.7505 10.2919 18.0984C12.1271 15.4463 14.9761 14.2642 16.6485 15.4766C18.3209 16.689 18.1877 19.8488 16.3525 22.4857Z" fill="#EC6708"/>
<path d="M25.3871 29.1567C28.7009 28.6448 31.6487 30.0043 31.9712 32.1933C32.2938 34.3823 29.8689 36.5719 26.5552 37.0839C23.2414 37.5958 20.2936 36.2363 19.9711 34.0473C19.6485 31.8583 22.0734 29.6687 25.3871 29.1567Z" fill="#EC6708"/>
<path d="M24.8106 27.4564C21.8506 29.1083 18.6464 28.8734 17.603 26.9336C16.5597 24.9938 18.1062 22.0841 21.044 20.4246C23.9818 18.7652 27.2082 19.0077 28.2516 20.9475C29.295 22.8873 27.7484 25.8046 24.8106 27.4564Z" fill="#EC6708"/>
<path d="M60.5892 67.7549C61.5882 64.4436 58.8429 62.6477 57.0891 58.7378C54.5213 53.0093 50.7769 52.638 49.1785 55.0552C47.5801 57.4724 49.7631 60.7534 48.7493 63.6252L48.7493 63.6783C47.8465 66.588 44.1687 67.8382 44.0059 70.7555C43.8431 73.6728 47.0399 75.7035 52.4789 72.7408C56.1715 70.7252 59.4201 71.0056 60.5892 67.7549Z" fill="#EC6708"/>
<path d="M58.9823 58.7929C59.5941 60.7981 62.5504 61.6366 65.5853 60.6657C68.6202 59.6948 70.5846 57.2821 69.9728 55.2769C69.361 53.2717 66.4047 52.4332 63.3697 53.4041C60.3348 54.375 58.3705 56.7877 58.9823 58.7929Z" fill="#EC6708"/>
<path d="M60.3525 76.5143C58.5173 73.8547 55.6683 72.7256 53.9959 73.9001C52.3235 75.0746 52.4567 78.2495 54.2919 80.9016C56.1271 83.5537 58.9761 84.7358 60.6485 83.5234C62.3209 82.311 62.1877 79.1512 60.3525 76.5143Z" fill="#EC6708"/>
<path d="M69.3871 69.8433C72.7009 70.3552 75.6487 68.9957 75.9712 66.8067C76.2938 64.6177 73.8689 62.4281 70.5552 61.9161C67.2414 61.4042 64.2936 62.7637 63.9711 64.9527C63.6485 67.1417 66.0734 69.3313 69.3871 69.8433Z" fill="#EC6708"/>
<path d="M68.8106 71.5436C65.8506 69.8917 62.6464 70.1266 61.603 72.0664C60.5597 74.0062 62.1062 76.9159 65.044 78.5754C67.9818 80.2348 71.2082 79.9923 72.2516 78.0525C73.295 76.1127 71.7484 73.1954 68.8106 71.5436Z" fill="#EC6708"/>
<path d="M140.589 67.7549C141.588 64.4436 138.843 62.6477 137.089 58.7378C134.521 53.0093 130.777 52.638 129.179 55.0552C127.58 57.4724 129.763 60.7534 128.749 63.6252L128.749 63.6783C127.846 66.588 124.169 67.8382 124.006 70.7555C123.843 73.6728 127.04 75.7035 132.479 72.7408C136.171 70.7252 139.42 71.0056 140.589 67.7549Z" fill="#EC6708"/>
<path d="M138.982 58.7929C139.594 60.7981 142.55 61.6366 145.585 60.6657C148.62 59.6948 150.585 57.2821 149.973 55.2769C149.361 53.2717 146.405 52.4332 143.37 53.4041C140.335 54.375 138.37 56.7877 138.982 58.7929Z" fill="#EC6708"/>
<path d="M140.352 76.5143C138.517 73.8547 135.668 72.7256 133.996 73.9001C132.323 75.0746 132.457 78.2495 134.292 80.9016C136.127 83.5537 138.976 84.7358 140.648 83.5234C142.321 82.311 142.188 79.1512 140.352 76.5143Z" fill="#EC6708"/>
<path d="M149.387 69.8433C152.701 70.3552 155.649 68.9957 155.971 66.8067C156.294 64.6177 153.869 62.4281 150.555 61.9161C147.241 61.4042 144.294 62.7637 143.971 64.9527C143.649 67.1417 146.073 69.3313 149.387 69.8433Z" fill="#EC6708"/>
<path d="M148.811 71.5436C145.851 69.8917 142.646 70.1266 141.603 72.0664C140.56 74.0062 142.106 76.9159 145.044 78.5754C147.982 80.2348 151.208 79.9923 152.252 78.0525C153.295 76.1127 151.748 73.1954 148.811 71.5436Z" fill="#EC6708"/>
<path d="M89.5892 16.2451C90.5882 19.5564 87.8429 21.3523 86.0891 25.2622C83.5213 30.9907 79.7769 31.362 78.1785 28.9448C76.5801 26.5276 78.7631 23.2466 77.7493 20.3748L77.7493 20.3217C76.8465 17.412 73.1687 16.1618 73.0059 13.2445C72.8431 10.3272 76.0399 8.29646 81.4789 11.2592C85.1715 13.2748 88.4201 12.9944 89.5892 16.2451Z" fill="#EC6708"/>
<path d="M87.9823 25.2071C88.5941 23.2019 91.5504 22.3634 94.5853 23.3343C97.6202 24.3052 99.5846 26.7179 98.9728 28.7231C98.361 30.7283 95.4047 31.5668 92.3697 30.5959C89.3348 29.625 87.3705 27.2123 87.9823 25.2071Z" fill="#EC6708"/>
<path d="M89.3525 7.48568C87.5173 10.1453 84.6683 11.2744 82.9959 10.0999C81.3235 8.92538 81.4567 5.75047 83.2919 3.09839C85.1271 0.446313 87.9761 -0.735759 89.6485 0.476619C91.3209 1.689 91.1877 4.84876 89.3525 7.48568Z" fill="#EC6708"/>
<path d="M98.3871 14.1567C101.701 13.6448 104.649 15.0043 104.971 17.1933C105.294 19.3823 102.869 21.5719 99.5552 22.0839C96.2414 22.5958 93.2936 21.2363 92.9711 19.0473C92.6485 16.8583 95.0734 14.6687 98.3871 14.1567Z" fill="#EC6708"/>
<path d="M97.8106 12.4564C94.8506 14.1083 91.6464 13.8734 90.603 11.9336C89.5597 9.99379 91.1062 7.08408 94.044 5.42464C96.9818 3.7652 100.208 4.00767 101.252 5.94748C102.295 7.88728 100.748 10.8046 97.8106 12.4564Z" fill="#EC6708"/>
</svg>
