<svg xmlns="http://www.w3.org/2000/svg" width="1440" height="160" viewBox="0 0 1440 160" fill="none">
<g clip-path="url(#clip0_2_519)">
<path d="M0 120.131C0 52.2657 56.2334 -2.09621 124.06 0.200075L1324.06 40.8262C1388.72 43.0152 1440 96.0638 1440 160.757V769.869C1440 837.734 1383.77 892.096 1315.94 889.8L115.94 849.174C51.2831 846.985 0 793.936 0 729.243V120.131Z" fill="#FCDFB3"/>
<mask id="mask0_2_519" style="mask-type:alpha" maskUnits="userSpaceOnUse" x="0" y="154" width="1440" height="736">
<path d="M0 274.11C0 206.252 56.2204 151.894 124.039 154.178L1324.04 194.595C1388.7 196.773 1440 249.825 1440 314.527V769.89C1440 837.748 1383.78 892.106 1315.96 889.822L115.961 849.405C51.2955 847.227 0 794.175 0 729.473V274.11Z" fill="#F7E3C1"/>
</mask>
<g mask="url(#mask0_2_519)">
<g opacity="0.1">
<path d="M2375.27 146.176H2343.08C2338.32 146.176 2333.25 145.78 2328.41 146.176C2320.48 146.652 2318.9 152.124 2317.23 160.212C2315.57 168.301 2317.23 173.535 2308.27 174.328C2303.2 174.724 2297.89 173.852 2292.81 174.328C2276.16 175.359 2269.98 199.07 2255.15 206.762C2249.06 210.059 2242.47 212.336 2235.65 213.502C2229.38 214.375 2225.97 213.502 2220.26 217.705C2213.34 223.609 2207.23 230.409 2202.11 237.927C2199.67 240.92 2197.02 243.729 2194.18 246.333C2192.43 248.078 2187.6 256.484 2185.22 257.277C2181.02 258.545 2173.72 254.58 2168.25 255.294C2162.92 255.809 2157.97 258.297 2154.37 262.272C2148.82 267.665 2148.27 270.203 2141.21 272.185C2138.92 273.261 2136.41 273.818 2133.88 273.818C2131.34 273.818 2128.84 273.261 2126.54 272.185C2112.74 265.132 2101.61 253.774 2094.83 239.83C2092.85 235.707 2091.66 225.953 2084.92 227.618C2080.4 228.808 2074.06 238.086 2070.96 241.337C2066.44 247.255 2061.57 252.895 2056.37 258.228C2049.5 263.078 2042.17 267.248 2034.49 270.678C2028.23 274.088 2024.66 280.432 2017.36 280.115C2010.63 278.986 2004.19 276.534 1998.41 272.899C1991.6 269.172 1988.5 264.969 1981.6 269.172C1976.49 272.789 1970.77 275.474 1964.72 277.102C1959.28 278.903 1953.63 279.97 1947.91 280.274C1943.21 279.627 1938.61 278.43 1934.19 276.705C1924.2 273.771 1914.61 268.775 1904.54 266.555C1899.14 265.286 1894.15 262.114 1888.68 261.083C1881.7 259.576 1872.82 264.652 1866.16 266.238C1859.38 267.601 1852.94 270.296 1847.21 274.168C1842.83 277.887 1838.22 281.33 1833.41 284.477C1827.1 286.375 1820.44 286.889 1813.91 285.983H1785.6C1779.06 286.421 1772.56 287.402 1766.18 288.917C1760.32 288.792 1754.53 290.185 1749.37 292.962C1737.25 299.541 1725.8 307.297 1715.19 316.118C1705.12 325.396 1694.98 334.119 1690.77 347.838C1687.61 361.136 1679.65 372.798 1668.41 380.589C1658.74 386.933 1645.58 385.427 1634.95 389.471C1628.79 391.155 1623.07 394.189 1618.22 398.353C1611.7 405.137 1604.15 410.863 1595.87 415.323C1587.94 419.367 1581.04 424.522 1573.43 428.566C1563.83 433.562 1565.5 437.765 1563.67 447.916C1562.96 455.554 1561.85 463.151 1560.34 470.675C1557.52 479.574 1553.32 487.976 1547.9 495.575C1539.41 507.708 1528.63 519.365 1528.79 534.75C1529.44 547.823 1528.48 560.926 1525.93 573.766C1524.66 579.396 1524.19 585.423 1522.6 591.212C1521.02 597.001 1516.58 603.186 1515.07 609.847C1512.74 624.055 1505.83 637.113 1495.41 647.04C1487.93 655.955 1479.41 663.942 1470.03 670.83C1464.48 674.002 1457.74 676.222 1451.96 678.76C1446.17 681.297 1441.33 682.566 1436.1 685.025C1429.6 688.355 1428.57 695.334 1425.87 701.916C1417.69 721.006 1407.31 739.076 1394.95 755.761C1384.64 770.114 1384.24 786.054 1377.74 802.311C1367.34 829.662 1360.05 858.099 1356.02 887.083C1353.19 898.894 1351.91 911.023 1352.21 923.165C1353 931.729 1355.07 939.897 1355.38 948.382C1354.81 962.791 1352 977.023 1347.06 990.57C1342.78 1005.24 1341.19 1019.83 1337.86 1034.66C1335.77 1041.15 1334.16 1047.77 1333.02 1054.49C1332.43 1060.58 1331.4 1066.62 1329.93 1072.57C1329.3 1075.42 1327.79 1077.17 1327.23 1080.5C1327.27 1084.05 1327.12 1087.59 1326.76 1091.12C1324.9 1097.59 1322.54 1103.9 1319.7 1110C1317.01 1116.42 1308.13 1126.41 1307.89 1132.99H2375.27V146.176Z" fill="#432F0F"/>
</g>
</g>
</g>
<defs>
<clipPath id="clip0_2_519">
<rect width="1440" height="160" fill="white"/>
</clipPath>
</defs>
</svg>