<svg width="41" height="40" viewBox="0 0 41 40" fill="none" xmlns="http://www.w3.org/2000/svg">
<path d="M16.9844 15.3125C16.9844 13.374 15.4073 11.7969 13.4688 11.7969C11.5302 11.7969 9.95312 13.374 9.95312 15.3125C9.95312 17.251 11.5302 18.8281 13.4688 18.8281C15.4073 18.8281 16.9844 17.251 16.9844 15.3125ZM12.2969 15.3125C12.2969 14.6663 12.8226 14.1406 13.4688 14.1406C14.1149 14.1406 14.6406 14.6663 14.6406 15.3125C14.6406 15.9587 14.1149 16.4844 13.4688 16.4844C12.8226 16.4844 12.2969 15.9587 12.2969 15.3125ZM29.875 14.1406H25.6729L28.3598 11.4537C28.8175 10.996 28.8175 10.2541 28.3598 9.79641C27.9023 9.33875 27.1602 9.33875 26.7026 9.79641L22.0151 14.4839C21.5622 14.9367 21.5557 15.6819 22.0151 16.1412C22.2484 16.3623 22.5115 16.4844 22.8438 16.4844H29.875C30.5222 16.4844 31.0469 15.9597 31.0469 15.3125C31.0469 14.6653 30.5222 14.1406 29.875 14.1406ZM29.875 18.8281C29.2278 18.8281 28.7031 19.3528 28.7031 20C28.7031 24.5232 25.0232 28.2031 20.5 28.2031C18.3129 28.2031 16.2541 27.3487 14.7027 25.7973C14.245 25.3397 13.503 25.3397 13.0454 25.7973C12.5877 26.255 12.5877 26.997 13.0454 27.4546C15.0394 29.4487 17.6869 30.5469 20.5 30.5469C26.3155 30.5469 31.0469 25.8155 31.0469 20C31.0469 19.3528 30.5222 18.8281 29.875 18.8281ZM20.5 0C9.48758 0 0.5 8.9882 0.5 20C0.5 31.0123 9.4882 40 20.5 40C31.5123 40 40.5 31.0117 40.5 20C40.5 8.98758 31.5118 0 20.5 0ZM20.5 37.6562C10.7643 37.6562 2.84375 29.7357 2.84375 20C2.84375 10.2643 10.7643 2.34375 20.5 2.34375C30.2357 2.34375 38.1562 10.2643 38.1562 20C38.1562 29.7357 30.2357 37.6562 20.5 37.6562Z" fill="#EC6708"/>
</svg>
