<svg width="41" height="40" viewBox="0 0 41 40" fill="none" xmlns="http://www.w3.org/2000/svg">
<circle cx="20.5" cy="20" r="19" stroke="#2B2A29" stroke-width="2"/>
<path d="M9.8507 20.3741L14.4488 22.0886L16.2413 27.8557C16.3192 28.2454 16.7868 28.3233 17.0985 28.0895L19.6703 25.9853C19.9041 25.7515 20.2938 25.7515 20.6055 25.9853L25.2036 29.3364C25.5154 29.5702 25.983 29.4144 26.0609 29.0247L29.49 12.6587C29.5679 12.269 29.1782 11.8793 28.7886 12.0352L9.8507 19.3609C9.3831 19.5168 9.3831 20.2182 9.8507 20.3741ZM16.0075 21.2313L25.0477 15.6981C25.2036 15.6201 25.3595 15.8539 25.2036 15.9319L17.7999 22.868C17.5661 23.1018 17.3323 23.4135 17.3323 23.8032L17.0985 25.6736C17.0985 25.9074 16.7089 25.9853 16.6309 25.6736L15.6957 22.2445C15.4619 21.8548 15.6178 21.3872 16.0075 21.2313Z" fill="#2B2A29"/>
</svg>
