<svg width="41" height="40" viewBox="0 0 41 40" fill="none" xmlns="http://www.w3.org/2000/svg">
<circle cx="20.5" cy="20" r="19" stroke="#2B2A29" stroke-width="2"/>
<path d="M28.4268 12.0625C26.4512 10.0937 23.8171 9 21.0366 9C15.2561 9 10.5732 13.6667 10.5732 19.4271C10.5732 21.25 11.0854 23.0729 11.9634 24.6042L10.5 30L16.061 28.5417C17.5976 29.3438 19.2805 29.7812 21.0366 29.7812C26.8171 29.7812 31.5 25.1146 31.5 19.3542C31.4268 16.6563 30.4024 14.0312 28.4268 12.0625ZM26.0854 23.1458C25.8659 23.7292 24.8415 24.3125 24.3293 24.3854C23.8902 24.4583 23.3049 24.4583 22.7195 24.3125C22.3537 24.1667 21.8415 24.0208 21.2561 23.7292C18.622 22.6354 16.939 20.0104 16.7927 19.7917C16.6463 19.6458 15.6951 18.4062 15.6951 17.0937C15.6951 15.7812 16.3537 15.1979 16.5732 14.9062C16.7927 14.6146 17.0854 14.6146 17.3049 14.6146C17.4512 14.6146 17.6707 14.6146 17.8171 14.6146C17.9634 14.6146 18.1829 14.5417 18.4024 15.0521C18.622 15.5625 19.1341 16.875 19.2073 16.9479C19.2805 17.0938 19.2805 17.2396 19.2073 17.3854C19.1341 17.5312 19.061 17.6771 18.9146 17.8229C18.7683 17.9687 18.6219 18.1875 18.5488 18.2604C18.4024 18.4062 18.2561 18.5521 18.4024 18.7708C18.5488 19.0625 19.061 19.8646 19.8659 20.5937C20.8902 21.4687 21.6951 21.7604 21.9878 21.9063C22.2805 22.0521 22.4268 21.9792 22.5732 21.8333C22.7195 21.6875 23.2317 21.1042 23.378 20.8125C23.5244 20.5208 23.7439 20.5938 23.9634 20.6667C24.1829 20.7396 25.5 21.3958 25.7195 21.5417C26.0122 21.6875 26.1585 21.7604 26.2317 21.8333C26.3049 22.0521 26.3049 22.5625 26.0854 23.1458Z" fill="#2B2A29"/>
</svg>
